<?xml version="1.0" encoding="UTF-8"?>
<svg version="1.1" xmlns="http://www.w3.org/2000/svg" width="512" height="512">
<path d="M0 0 C1.01790619 0.00215515 2.03581238 0.0043103 3.08456421 0.00653076 C17.69363523 0.05620146 32.02575853 0.30709809 46.375 3.3125 C47.34985352 3.51117676 48.32470703 3.70985352 49.32910156 3.91455078 C97.7109774 14.03517194 141.69928269 35.9516877 177.375 70.3125 C178.3640332 71.26068604 178.3640332 71.26068604 179.37304688 72.22802734 C188.86130305 81.37247479 197.6012044 90.66984009 205.375 101.3125 C206.23306152 102.46355017 207.09113451 103.61459177 207.94921875 104.765625 C213.98736829 112.95680614 219.34595521 121.47054105 224.375 130.3125 C224.73948242 130.94430176 225.10396484 131.57610352 225.47949219 132.22705078 C247.08534998 169.97532572 256.85198095 212.74189997 256.6875 255.9375 C256.68534485 256.95540619 256.6831897 257.97331238 256.68096924 259.02206421 C256.63129854 273.63113523 256.38040191 287.96325853 253.375 302.3125 C253.07698486 303.77478027 253.07698486 303.77478027 252.77294922 305.26660156 C242.65232806 353.6484774 220.7358123 397.63678269 186.375 433.3125 C185.74287598 433.97185547 185.11075195 434.63121094 184.45947266 435.31054688 C175.31502521 444.79880305 166.01765991 453.5387044 155.375 461.3125 C154.22394983 462.17056152 153.07290823 463.02863451 151.921875 463.88671875 C143.73224019 469.92427396 135.22961724 475.30707302 126.375 480.3125 C125.66778809 480.7146875 124.96057617 481.116875 124.23193359 481.53125 C101.09654164 494.5566741 75.92537591 503.30551461 49.9375 508.625 C49.21860596 508.77235596 48.49971191 508.91971191 47.7590332 509.0715332 C33.08339502 511.86090125 18.55831162 512.66142619 3.64770508 512.62817383 C0.70811513 512.6250221 -2.2304558 512.64854926 -5.16992188 512.67382812 C-18.54306192 512.71848737 -31.43916711 511.51301542 -44.625 509.3125 C-46.33055054 509.03031616 -46.33055054 509.03031616 -48.07055664 508.74243164 C-91.33802759 500.97044532 -132.38793216 480.98345309 -165.625 452.3125 C-166.37007813 451.67828125 -167.11515625 451.0440625 -167.8828125 450.390625 C-181.38779833 438.57948485 -194.05918743 425.82889772 -204.625 411.3125 C-205.48149066 410.16255169 -206.33826433 409.01281411 -207.1953125 407.86328125 C-213.23534209 399.67315742 -218.61867614 391.16870382 -223.625 382.3125 C-224.0271875 381.60528809 -224.429375 380.89807617 -224.84375 380.16943359 C-237.8691741 357.03404164 -246.61801461 331.86287591 -251.9375 305.875 C-252.08485596 305.15610596 -252.23221191 304.43721191 -252.3840332 303.6965332 C-255.35789088 288.05024391 -255.99800362 272.57681954 -255.9375 256.6875 C-255.93534485 255.66959381 -255.9331897 254.65168762 -255.93096924 253.60293579 C-255.88129854 238.99386477 -255.63040191 224.66174147 -252.625 210.3125 C-252.42632324 209.33764648 -252.22764648 208.36279297 -252.02294922 207.35839844 C-241.90232806 158.9765226 -219.9858123 114.98821731 -185.625 79.3125 C-184.99287598 78.65314453 -184.36075195 77.99378906 -183.70947266 77.31445312 C-174.56502521 67.82619695 -165.26765991 59.0862956 -154.625 51.3125 C-153.47394983 50.45443848 -152.32290823 49.59636549 -151.171875 48.73828125 C-142.98224019 42.70072604 -134.47961724 37.31792698 -125.625 32.3125 C-124.91778809 31.9103125 -124.21057617 31.508125 -123.48193359 31.09375 C-100.34654164 18.0683259 -75.17537591 9.31948539 -49.1875 4 C-48.46860596 3.85264404 -47.74971191 3.70528809 -47.0090332 3.5534668 C-31.36274391 0.57960912 -15.88931954 -0.06050362 0 0 Z " fill="#304886" transform="translate(255.625,-0.3125)"/>
<path d="M0 0 C2.60229842 0.00320237 5.203502 -0.02053031 7.80566406 -0.0456543 C9.46972514 -0.04792383 11.13378925 -0.0486324 12.79785156 -0.04760742 C13.95722229 -0.06142204 13.95722229 -0.06142204 15.14001465 -0.07551575 C18.18823276 -0.04920941 20.72765232 0.17361035 23.56567383 1.32080078 C25.95558293 4.47097778 25.62951697 7.8038064 25.57519531 11.59692383 C25.57665054 12.40681763 25.57810577 13.21671143 25.5796051 14.05114746 C25.57794595 15.76256917 25.56638268 17.47400576 25.5456543 19.18530273 C25.51670591 21.80622678 25.52504239 24.42512758 25.53808594 27.04614258 C25.53184825 28.70891283 25.52345706 30.3716767 25.51269531 32.03442383 C25.51563095 32.81885864 25.51856659 33.60329346 25.52159119 34.41149902 C25.42944901 39.72070294 25.42944901 39.72070294 23.90600586 42.30786133 C21.34050732 43.72311965 19.33914565 43.70152416 16.41503906 43.72192383 C15.29226563 43.74383789 14.16949219 43.76575195 13.01269531 43.78833008 C11.25119141 43.80186523 11.25119141 43.80186523 9.45410156 43.81567383 C-4.08104742 43.78436172 -4.08104742 43.78436172 -15.85839844 49.69067383 C-20.04496382 55.01902977 -20.24374002 59.8021732 -20.33496094 66.33520508 C-20.35432709 67.19377609 -20.37369324 68.05234711 -20.39364624 68.93693542 C-20.453214 71.66724857 -20.49973578 74.3976044 -20.54589844 77.12817383 C-20.58409923 78.98431155 -20.62315218 80.84043195 -20.66308594 82.6965332 C-20.7588967 87.23610527 -20.84301164 91.77576029 -20.92089844 96.31567383 C-19.00627808 96.28425293 -19.00627808 96.28425293 -17.05297852 96.25219727 C-12.31009166 96.17970952 -7.56725363 96.13384196 -2.82397461 96.09594727 C-0.77245851 96.07585184 1.27900045 96.04857059 3.33032227 96.01391602 C6.28188182 95.96530714 9.23268305 95.94268431 12.18457031 95.92504883 C13.0993364 95.90440369 14.01410248 95.88375854 14.95658875 95.86248779 C19.18723266 95.86100243 21.48000044 95.95452129 25.17407227 98.18139648 C27.07910156 100.31567383 27.07910156 100.31567383 27.45410156 102.85473633 C27.26847656 104.38227539 27.26847656 104.38227539 27.07910156 105.94067383 C26.87607422 107.76598633 26.87607422 107.76598633 26.66894531 109.62817383 C26.57726074 110.34231445 26.48557617 111.05645508 26.39111328 111.79223633 C26.01710742 114.81705991 25.70672839 117.84625521 25.39550781 120.87817383 C25.14579072 123.23250915 24.89447564 125.5866755 24.64160156 127.94067383 C24.51978516 129.09132324 24.39796875 130.24197266 24.27246094 131.42749023 C24.14806641 132.51723145 24.02367187 133.60697266 23.89550781 134.72973633 C23.7866626 135.70894043 23.67781738 136.68814453 23.56567383 137.69702148 C23.086213 140.27740121 22.46890938 142.09842644 21.07910156 144.31567383 C17.69517148 146.00763887 13.85432365 145.43553931 10.13378906 145.41333008 C9.24877716 145.41191513 8.36376526 145.41050018 7.45193481 145.40904236 C4.61928965 145.40343523 1.78672292 145.39088154 -1.04589844 145.37817383 C-2.96386605 145.37315975 -4.88183489 145.36859668 -6.79980469 145.36450195 C-11.50686625 145.35346349 -16.21386904 145.33619408 -20.92089844 145.31567383 C-20.91813306 145.86951154 -20.91536768 146.42334925 -20.9125185 146.99396992 C-20.84629292 160.46414401 -20.79682604 173.93428962 -20.76546192 187.40459156 C-20.74978593 193.91871506 -20.72851223 200.43272133 -20.69458008 206.94677734 C-20.66205583 213.22965845 -20.64406 219.51242658 -20.63626671 225.79538536 C-20.63071074 228.19604967 -20.61986174 230.5967076 -20.60370827 232.99732399 C-20.58202649 236.35203181 -20.57892767 239.70626889 -20.58032227 243.06103516 C-20.56953644 244.06012909 -20.55875061 245.05922302 -20.54763794 246.08859253 C-20.55176193 247.00144516 -20.55588593 247.91429779 -20.56013489 248.85481262 C-20.55736951 249.64847638 -20.55460413 250.44214014 -20.55175495 251.25985432 C-21.01513524 253.84049373 -21.8763474 254.72410807 -23.92089844 256.31567383 C-25.86268616 256.68989563 -25.86268616 256.68989563 -28.08520508 256.68798828 C-28.91939468 256.69421707 -29.75358429 256.70044586 -30.61305237 256.7068634 C-31.95846352 256.69304878 -31.95846352 256.69304878 -33.33105469 256.67895508 C-34.25430038 256.67945358 -35.17754608 256.67995209 -36.12876892 256.6804657 C-38.07976434 256.67812562 -40.03076279 256.668401 -41.98168945 256.65185547 C-44.97537071 256.62823716 -47.96816317 256.63129815 -50.96191406 256.63793945 C-52.8557996 256.63236364 -54.74968138 256.62525437 -56.64355469 256.61645508 C-57.54251968 256.61736649 -58.44148468 256.61827789 -59.36769104 256.61921692 C-60.19872849 256.60968491 -61.02976593 256.60015289 -61.88598633 256.59033203 C-62.61862198 256.58572464 -63.35125763 256.58111725 -64.10609436 256.57637024 C-65.92089844 256.31567383 -65.92089844 256.31567383 -67.92089844 254.31567383 C-68.16699409 252.36728477 -68.16699409 252.36728477 -68.16140747 249.93710327 C-68.1641568 249.01721115 -68.16690613 248.09731903 -68.16973877 247.14955139 C-68.16254822 246.13751144 -68.15535767 245.1254715 -68.14794922 244.08276367 C-68.14824127 243.01933243 -68.14853333 241.95590118 -68.14883423 240.86024475 C-68.14743678 237.33228499 -68.131856 233.80453436 -68.11621094 230.27661133 C-68.11248228 227.83566402 -68.10963462 225.39471521 -68.1076355 222.95376587 C-68.09998742 216.51916393 -68.08032885 210.08465182 -68.05822754 203.65008545 C-68.03779438 197.08810644 -68.0286392 190.52611296 -68.01855469 183.96411133 C-67.99708408 171.08126043 -67.9633167 158.1984719 -67.92089844 145.31567383 C-68.87456299 145.33662109 -69.82822754 145.35756836 -70.81079102 145.37915039 C-74.34970072 145.45156151 -77.888545 145.49747653 -81.42797852 145.53540039 C-82.95966605 145.55551362 -84.49127683 145.58280833 -86.02270508 145.61743164 C-88.22463917 145.66596698 -90.42555825 145.68864379 -92.62792969 145.70629883 C-93.31240677 145.72694397 -93.99688385 145.74758911 -94.70210266 145.76885986 C-97.83642831 145.77033847 -99.49310292 145.70673237 -101.85145569 143.55090332 C-102.97463806 141.20335328 -103.30520537 139.74669685 -103.32495117 137.16137695 C-103.33763535 136.35373901 -103.35031952 135.54610107 -103.36338806 134.71398926 C-103.36045242 133.85035767 -103.35751678 132.98672607 -103.35449219 132.09692383 C-103.35973404 131.20203247 -103.36497589 130.30714111 -103.37037659 129.38513184 C-103.37679181 127.49561601 -103.37546624 125.60606023 -103.36694336 123.71655273 C-103.35842795 120.82569348 -103.38720951 117.93680693 -103.41894531 115.04614258 C-103.42055731 113.20890359 -103.41997982 111.3716611 -103.41699219 109.53442383 C-103.42822617 108.67079224 -103.43946014 107.80716064 -103.45103455 106.9173584 C-103.40793877 103.20709664 -103.32111513 100.9609098 -101.33813477 97.76391602 C-98.00979848 95.76980524 -95.61590126 95.86165739 -91.74902344 95.92504883 C-90.72539703 95.93353851 -90.72539703 95.93353851 -89.68109131 95.94219971 C-87.51030082 95.96451746 -85.34118638 96.01469875 -83.17089844 96.06567383 C-81.69566193 96.08574507 -80.22039944 96.10399476 -78.74511719 96.12036133 C-75.13650343 96.16436503 -71.52886462 96.233358 -67.92089844 96.31567383 C-67.93660889 95.03104248 -67.95231934 93.74641113 -67.96850586 92.42285156 C-68.0234382 87.58649138 -68.05747525 82.75015784 -68.08569336 77.91357422 C-68.10063748 75.83344868 -68.12100021 73.75335385 -68.1472168 71.67333984 C-68.40181792 50.93083669 -67.42909604 31.14827095 -52.14746094 15.27661133 C-36.88121663 1.83160318 -19.49633379 -0.05032514 0 0 Z " fill="#FEFEFE" transform="translate(293.9208984375,127.684326171875)"/>
<path d="M0 0 C8.58 0 17.16 0 26 0 C26 8.58 26 17.16 26 26 C21.87194537 22.46166746 17.97413195 19.10127913 14.16015625 15.29296875 C13.32548828 14.45958984 12.49082031 13.62621094 11.63085938 12.76757812 C10.78330078 11.91615234 9.93574219 11.06472656 9.0625 10.1875 C8.18787109 9.31673828 7.31324219 8.44597656 6.41210938 7.54882812 C5.58646484 6.72189453 4.76082031 5.89496094 3.91015625 5.04296875 C3.15871338 4.29039795 2.40727051 3.53782715 1.63305664 2.76245117 C0 1 0 1 0 0 Z " fill="#203058" transform="translate(199,274)"/>
</svg>
