<?xml version="1.0" encoding="UTF-8"?>
<svg version="1.1" xmlns="http://www.w3.org/2000/svg" width="512" height="512">
<path d="M0 0 C1.01545898 0.19867676 2.03091797 0.39735352 3.07714844 0.60205078 C52.9758035 10.58327711 96.53871388 34.88580573 133 70 C133.7940625 70.7528125 134.588125 71.505625 135.40625 72.28125 C140.75597303 77.46114055 145.38660506 83.16405541 150 89 C151.19109375 90.48306641 151.19109375 90.48306641 152.40625 91.99609375 C175.32205725 121.03970389 191.22147176 154.85685587 199.6875 190.8125 C199.97306763 191.99936401 199.97306763 191.99936401 200.2644043 193.21020508 C204.22851721 210.89052902 205.555362 228.61292655 205.4375 246.6875 C205.43293793 248.18546112 205.43293793 248.18546112 205.42828369 249.71368408 C205.35621635 265.78341917 204.43972751 281.25213186 201 297 C200.78037598 298.02625488 200.56075195 299.05250977 200.33447266 300.10986328 C191.83138831 338.85817193 174.61772522 375.56726438 149 406 C148.57138672 406.51739746 148.14277344 407.03479492 147.70117188 407.56787109 C137.18164284 420.2564129 126.03816903 431.86528878 113 442 C111.52660156 443.18142578 111.52660156 443.18142578 110.0234375 444.38671875 C70.29759115 476.0035908 18.37047678 496.93437939 -32.79296875 497.203125 C-33.69337387 497.21018463 -34.59377899 497.21724426 -35.52146912 497.22451782 C-72.98691069 497.45161655 -72.98691069 497.45161655 -90 494 C-91.01545898 493.80132324 -92.03091797 493.60264648 -93.07714844 493.39794922 C-142.9758035 483.41672289 -186.53871388 459.11419427 -223 424 C-223.7940625 423.2471875 -224.588125 422.494375 -225.40625 421.71875 C-230.75597303 416.53885945 -235.38660506 410.83594459 -240 405 C-240.7940625 404.01128906 -241.588125 403.02257812 -242.40625 402.00390625 C-266.9776499 370.86198961 -283.32468106 334.48759715 -291.25 295.6875 C-291.47671387 294.57942993 -291.47671387 294.57942993 -291.70800781 293.44897461 C-292.18439803 290.97158418 -292.60252786 288.49133778 -293 286 C-293.17805176 284.88423584 -293.35610352 283.76847168 -293.53955078 282.61889648 C-295.19998488 270.98027732 -295.3987437 259.43103747 -295.375 247.6875 C-295.37445618 246.6738739 -295.37391235 245.6602478 -295.37335205 244.61590576 C-295.33347417 228.41878779 -294.46747801 212.87491635 -291 197 C-290.78037598 195.97374512 -290.56075195 194.94749023 -290.33447266 193.89013672 C-279.82149525 145.98280374 -255.85138923 104.15003587 -222 69 C-221.2471875 68.2059375 -220.494375 67.411875 -219.71875 66.59375 C-214.53885945 61.24402697 -208.83594459 56.61339494 -203 52 C-202.01128906 51.2059375 -201.02257812 50.411875 -200.00390625 49.59375 C-167.66655102 24.07913264 -130.33332447 7.86607287 -90 0 C-89.17274414 -0.16661133 -88.34548828 -0.33322266 -87.49316406 -0.50488281 C-59.91781494 -5.80488028 -27.50199116 -5.57960557 0 0 Z " fill="#CBFEFE" transform="translate(301,9)"/>
<path d="M0 0 C1.08066742 0.00052872 2.16133484 0.00105743 3.27474976 0.00160217 C5.00007431 0.05579567 5.00007431 0.05579567 6.76025391 0.11108398 C7.95035065 0.12098862 9.14044739 0.13089325 10.36660767 0.14109802 C14.15794454 0.18020113 17.94635853 0.26802724 21.73681641 0.35717773 C24.31099327 0.39229633 26.88521563 0.42423435 29.45947266 0.45288086 C35.76124673 0.52995038 42.06132276 0.64700319 48.36181641 0.79467773 C48.48942352 1.46910416 48.61703064 2.14353058 48.74850464 2.83839417 C49.00737961 4.17522499 49.00737961 4.17522499 49.27148438 5.5390625 C49.44034149 6.41973892 49.60919861 7.30041534 49.78317261 8.20777893 C50.61235464 11.91473996 51.93224249 15.27683961 53.48681641 18.73217773 C53.79103516 19.41530029 54.09525391 20.09842285 54.40869141 20.80224609 C59.53717632 31.89441887 67.16896806 40.36522097 76.36181641 48.23217773 C79.10991675 50.59448707 81.518704 53.03087014 83.86181641 55.79467773 C93.64022152 67.11933399 107.69785562 76.05926563 122.95556641 77.21655273 C125.41521623 77.39026797 127.87105138 77.54508623 130.33447266 77.65405273 C131.53910156 77.74686523 131.53910156 77.74686523 132.76806641 77.84155273 C133.48285156 77.88119141 134.19763672 77.92083008 134.93408203 77.96166992 C139.06659454 79.37962373 141.91917631 81.09387095 144.36181641 84.79467773 C145.39405628 89.65204338 145.2998121 94.48165487 145.22119141 99.42358398 C145.2208273 100.86034779 145.22283876 102.29711397 145.22711182 103.73387146 C145.22840339 106.73771656 145.20552597 109.74009345 145.16455078 112.74365234 C145.11342713 116.58648056 145.11568616 120.42700481 145.13515854 124.270051 C145.14547266 127.23426716 145.1310129 130.19795697 145.10877228 133.16209221 C145.10043108 134.578599 145.09890511 135.99516343 145.10442352 137.41168404 C145.10771816 139.39305735 145.07486866 141.37439033 145.04052734 143.35546875 C145.03051697 144.48098648 145.02050659 145.60650421 145.01019287 146.76612854 C144.16240257 150.72613445 142.42300824 152.23432172 139.36181641 154.79467773 C126.86801427 161.0415788 101.85507375 153.6229554 89.36181641 149.79467773 C83.34270375 147.75640906 77.70830926 145.01120411 72.04150391 142.15405273 C71.39689209 141.83033691 70.75228027 141.50662109 70.08813477 141.1730957 C68.51211889 140.3814362 66.93688687 139.58821654 65.36181641 138.79467773 C65.36872985 139.67923456 65.36872985 139.67923456 65.37578297 140.58166122 C65.48689627 155.02577659 65.56927766 169.46985344 65.62087727 183.91430283 C65.64650294 190.89997597 65.68134783 197.88536137 65.73901367 204.87084961 C65.79476024 211.62714563 65.82333712 218.38314427 65.83620262 225.13965607 C65.84535719 227.70213743 65.8632307 230.26460473 65.89046669 232.8269577 C66.25163411 268.25250118 55.62053372 298.54263135 31.11181641 324.48217773 C6.68713488 347.86381236 -25.17186103 358.79642089 -58.63037109 358.07983398 C-87.56075652 356.99777419 -113.9943144 343.54718815 -134.63818359 323.79467773 C-135.31236328 323.18366211 -135.98654297 322.57264648 -136.68115234 321.94311523 C-156.84827524 303.02385823 -168.63222477 273.63834754 -169.95458984 246.31420898 C-170.86399259 215.7329581 -161.0427087 188.26582773 -141.63818359 164.79467773 C-141.04263672 164.04573242 -140.44708984 163.29678711 -139.83349609 162.52514648 C-123.47351484 142.68181994 -95.9835253 128.13602503 -70.63818359 124.79467773 C-68.7291717 124.76224939 -66.81965673 124.75377377 -64.91040039 124.76464844 C-63.92234909 124.76898392 -62.93429779 124.7733194 -61.91630554 124.77778625 C-61.1645253 124.78336044 -60.41274506 124.78893463 -59.63818359 124.79467773 C-59.56207934 131.82382263 -59.50956087 138.85286115 -59.47338867 145.88232422 C-59.45830816 148.27331513 -59.43784082 150.66427841 -59.41186523 153.05517578 C-59.37545053 156.49315209 -59.35844961 159.93076242 -59.34521484 163.36889648 C-59.32973099 164.43677902 -59.31424713 165.50466156 -59.29829407 166.60490417 C-59.29618966 175.89819156 -59.29618966 175.89819156 -62.63818359 179.79467773 C-66.22504964 182.54040267 -68.86251232 183.13087745 -73.32568359 183.23217773 C-84.11067232 183.94501665 -91.9185485 188.3016986 -99.63818359 195.79467773 C-107.7217702 205.08654781 -109.42781118 216.06748598 -108.98193359 228.06030273 C-108.51972107 233.08161147 -107.32503925 236.57021147 -104.63818359 240.79467773 C-103.87441406 242.05731445 -103.87441406 242.05731445 -103.09521484 243.34545898 C-99.80633311 248.42553947 -96.46872592 252.16821437 -91.43505859 255.54077148 C-88.23381656 257.77468169 -86.11659656 260.43356713 -83.88818359 263.60717773 C-77.61569943 271.98071405 -69.10139193 277.83407656 -58.63818359 279.79467773 C-45.76966875 280.88492691 -35.35189212 278.08589548 -25.11865234 270.12670898 C-17.27157045 262.74921624 -12.68083854 252.62142412 -12.27018261 241.85120106 C-12.25822543 240.08946241 -12.26225342 238.32756373 -12.27983093 236.56587219 C-12.27621078 235.09651074 -12.27621078 235.09651074 -12.2725175 233.59746522 C-12.26794482 230.34182614 -12.28453618 227.08664983 -12.30102539 223.83105469 C-12.30183236 221.48628751 -12.30123622 219.14151949 -12.29934692 216.79675293 C-12.29778941 211.76095816 -12.30514345 206.72528353 -12.31918907 201.68950844 C-12.33856584 194.40116226 -12.33715953 187.11292488 -12.32851801 179.82456853 C-12.31452732 167.98737126 -12.30942391 156.15019279 -12.31420898 144.31298828 C-12.31462861 143.25208967 -12.31462861 143.25208967 -12.31505672 142.16975876 C-12.31944949 132.12357058 -12.33277597 122.07741368 -12.34966747 112.03123971 C-12.35085679 111.3230644 -12.35204612 110.61488908 -12.35327148 109.88525391 C-12.35446508 109.17794702 -12.35565867 108.47064013 -12.35688844 107.74189971 C-12.37619879 95.94304058 -12.37241803 84.14432274 -12.34973651 72.34547013 C-12.33552668 64.42922406 -12.34925519 56.51353093 -12.38233411 48.59734118 C-12.39666622 43.67593843 -12.38604703 38.7548247 -12.36835098 33.83344269 C-12.36517128 31.55137115 -12.37227656 29.26925865 -12.3904171 26.987257 C-12.41372028 23.87158803 -12.4001567 20.75815701 -12.37748718 17.64253235 C-12.39311964 16.73980679 -12.4087521 15.83708124 -12.42485827 14.90700036 C-12.33292429 9.21814671 -11.10479387 6.22047295 -7.19535416 2.06191933 C-4.82034147 0.12910931 -3.02495475 -0.04970583 0 0 Z " fill="#000000" transform="translate(286.63818359375,95.205322265625)"/>
<path d="M0 0 C4.80619405 4.05235819 9.46607828 8.22699547 14.03686523 12.54248047 C15.03326271 13.48083237 15.03326271 13.48083237 16.04978943 14.43814087 C22.14020926 20.1902823 28.16726703 26.00741106 34.17321682 31.84759331 C38.19472753 35.75522776 42.23565303 39.63684485 46.33178711 43.46630859 C50.31685191 47.19337976 54.23811727 50.97812295 58.12419319 54.80820084 C59.60214148 56.24476613 61.10072209 57.66045603 62.62063408 59.05254745 C69.36327009 65.25152502 75.02503084 70.66137338 75.9208374 80.14202881 C76.10373547 86.14653993 75.66862964 92.03719688 75 98 C74.87534442 99.40732355 74.75369234 100.81492002 74.63650513 102.22288513 C74.34137919 105.34861606 73.89793241 108.40483263 73.375 111.5 C73.10876831 113.16881226 73.10876831 113.16881226 72.8371582 114.87133789 C65.54861553 158.50673273 47.5915282 200.03451668 19 234 C18.57138672 234.51739746 18.14277344 235.03479492 17.70117188 235.56787109 C7.18164284 248.2564129 -3.96183097 259.86528878 -17 270 C-17.98226562 270.78761719 -18.96453125 271.57523437 -19.9765625 272.38671875 C-62.77398296 306.4481848 -115.94833679 324.78151148 -170.4597168 325.51489258 C-172.28395982 325.5467307 -174.10799007 325.59468726 -175.93139648 325.65844727 C-178.59435742 325.74989477 -181.25367395 325.78849793 -183.91796875 325.81640625 C-184.72542038 325.85455948 -185.53287201 325.89271271 -186.36479187 325.93202209 C-189.82572233 325.92020013 -192.09165856 325.76284956 -194.79801941 323.48997498 C-195.97035662 322.13594884 -197.10086237 320.74496545 -198.1950531 319.32704163 C-200.09801561 316.87363263 -202.14512815 314.72631014 -204.33959961 312.53100586 C-205.50131935 311.36455788 -205.50131935 311.36455788 -206.68650818 310.17454529 C-207.50023392 309.36284378 -208.31395966 308.55114227 -209.15234375 307.71484375 C-210.01130753 306.85492325 -210.8702713 305.99500275 -211.75526428 305.10902405 C-213.56177015 303.30184139 -215.36952462 301.49590608 -217.1784668 299.69116211 C-219.9293681 296.94561607 -222.67489221 294.19477454 -225.41992188 291.44335938 C-227.18457532 289.6793668 -228.94953897 287.9156845 -230.71484375 286.15234375 C-231.52654526 285.33861801 -232.33824677 284.52489227 -233.17454529 283.68650818 C-237.41546747 279.46277674 -241.73702254 275.40774834 -246.27284241 271.50254822 C-248.38805344 269.66241123 -250.38525374 267.72843423 -252.359375 265.73828125 C-253.44412109 264.64870117 -253.44412109 264.64870117 -254.55078125 263.53710938 C-255.27652344 262.80298828 -256.00226563 262.06886719 -256.75 261.3125 C-257.49121094 260.56677734 -258.23242188 259.82105469 -258.99609375 259.05273438 C-260.36934689 257.67085217 -261.74155944 256.28793437 -263.11230469 254.90356445 C-265.06931082 252.93010651 -267.03352613 250.96401986 -269 249 C-268.505 248.01 -268.505 248.01 -268 247 C-266.68902344 247.94359375 -266.68902344 247.94359375 -265.3515625 248.90625 C-239.99326948 266.72596922 -209.77819672 274.87735839 -178.82421875 270.34765625 C-148.05367219 264.85167988 -119.48439713 248.47429521 -101 223 C-91.94884308 209.78843574 -85.87236934 195.5422824 -82 180 C-81.74744414 179.06501726 -81.74744414 179.06501726 -81.48978615 178.11114597 C-79.89547081 171.75950681 -79.69431674 165.67320259 -79.68115234 159.14624023 C-79.67110672 157.99400467 -79.6610611 156.8417691 -79.65071106 155.65461731 C-79.61999289 151.8726142 -79.60287539 148.09068153 -79.5859375 144.30859375 C-79.56721674 141.6758616 -79.54764265 139.0431354 -79.5272522 136.41041565 C-79.48062916 130.20587183 -79.44380584 124.00131086 -79.41057932 117.79668242 C-79.37224085 110.72762881 -79.32286178 103.65866547 -79.27259517 96.58968818 C-79.16952068 82.05986174 -79.08018136 67.5299706 -79 53 C-75.6569092 54.32121944 -72.42343319 55.74804096 -69.1875 57.3125 C-52.25408692 65.02812773 -33.79947222 68.93068814 -15.25 69.25 C-14.51612061 69.27151123 -13.78224121 69.29302246 -13.02612305 69.31518555 C-8.48939063 69.34267461 -5.59330556 68.82527079 -2 66 C-0.62203431 63.24406862 -0.83701061 60.98220186 -0.79467773 57.89794922 C-0.77473251 56.61677216 -0.75478729 55.33559509 -0.73423767 54.01559448 C-0.71725331 52.61196006 -0.70037451 51.20832437 -0.68359375 49.8046875 C-0.6630246 48.37264403 -0.64202814 46.94060663 -0.62062073 45.50857544 C-0.56539597 41.73733437 -0.51598853 37.96603848 -0.46777344 34.19470215 C-0.41756133 30.34719964 -0.36187376 26.49977687 -0.30664062 22.65234375 C-0.19905413 15.10163 -0.09761029 7.55085 0 0 Z " fill="#ADD7D7" transform="translate(431,181)"/>
<path d="M0 0 C10.51686295 -1.02696311 10.51686295 -1.02696311 15.13378906 2.08569336 C19.13071334 6.18061069 18.85497365 11.00071395 18.92132568 16.46180725 C18.90215962 17.85086152 18.88147264 19.23989552 18.859375 20.62890625 C18.85901089 22.06567005 18.86102235 23.50243623 18.86529541 24.93919373 C18.86658698 27.94303883 18.84370957 30.94541572 18.80273438 33.94897461 C18.75161073 37.79180283 18.75386975 41.63232708 18.77334213 45.47537327 C18.78365625 48.43958943 18.76919649 51.40327924 18.74695587 54.36741447 C18.73861468 55.78392127 18.7370887 57.2004857 18.74260712 58.6170063 C18.74590175 60.59837961 18.71305226 62.57971259 18.67871094 64.56079102 C18.66870056 65.68630875 18.65869019 66.81182648 18.64837646 67.97145081 C17.80058616 71.93145672 16.06119183 73.43964398 13 76 C0.50619787 82.24690107 -24.50674265 74.82827766 -37 71 C-43.01911266 68.96173133 -48.65350714 66.21652638 -54.3203125 63.359375 C-54.96492432 63.03565918 -55.60953613 62.71194336 -56.27368164 62.37841797 C-57.84969752 61.58675847 -59.42492953 60.7935388 -61 60 C-60.99308655 60.88455683 -60.99308655 60.88455683 -60.98603344 61.78698349 C-60.87492014 76.23109886 -60.79253875 90.6751757 -60.74093914 105.11962509 C-60.71531346 112.10529823 -60.68046857 119.09068364 -60.62280273 126.07617188 C-60.56705617 132.8324679 -60.53847928 139.58846654 -60.52561378 146.34497833 C-60.51645921 148.9074597 -60.49858571 151.469927 -60.47134972 154.03227997 C-60.1101823 189.45782345 -70.74128268 219.74795361 -95.25 245.6875 C-119.67468152 269.06913462 -151.53367744 280.00174316 -184.9921875 279.28515625 C-218.73783205 278.02299521 -246.08895131 260.48702477 -269 237 C-265.35125236 237 -264.65173938 237.81070698 -261.8125 240 C-251.61207083 247.34133078 -240.06893405 252.57503223 -228 256 C-227.28585938 256.21269531 -226.57171875 256.42539062 -225.8359375 256.64453125 C-196.85344919 264.66956287 -163.90581181 258.64708016 -137.95092773 244.53979492 C-113.75386146 230.78800147 -97.86950104 210.23023856 -87 185 C-86.5565625 183.99066406 -86.113125 182.98132813 -85.65625 181.94140625 C-79.02247535 165.43235342 -79.53207688 147.64741807 -79.48828125 130.18359375 C-79.47140313 127.62955378 -79.45324877 125.07552196 -79.43388367 122.52149963 C-79.39151384 116.53323271 -79.36181983 110.54503829 -79.33856028 104.55667788 C-79.31130296 97.72683101 -79.26740632 90.89712066 -79.22227156 84.0673722 C-79.12996839 70.04498945 -79.05804217 56.02256352 -79 42 C-76.32020578 43.06101089 -73.67487683 44.14664947 -71.046875 45.33203125 C-53.33245735 53.28672827 -34.66483985 58.09334927 -15.1875 58.4375 C-14.44056885 58.45981689 -13.6936377 58.48213379 -12.92407227 58.50512695 C-9.27737029 58.48966952 -7.1683618 58.10503101 -4.05078125 56.16015625 C-0.98759974 52.93360506 -0.86847134 50.24727047 -0.79467773 45.9777832 C-0.77473251 44.95695145 -0.75478729 43.93611969 -0.73423767 42.88435364 C-0.71752518 41.78427475 -0.70081268 40.68419586 -0.68359375 39.55078125 C-0.6524221 37.85915108 -0.6524221 37.85915108 -0.62062073 36.13334656 C-0.55517153 32.5264604 -0.49626156 28.91950071 -0.4375 25.3125 C-0.39431039 22.86913298 -0.35069596 20.42577344 -0.30664062 17.98242188 C-0.19949484 11.98835926 -0.09771971 5.99422329 0 0 Z " fill="#FB0D53" transform="translate(413,174)"/>
<path d="M0 0 C1.20167313 -0.01283524 2.40334625 -0.02567047 3.64143372 -0.03889465 C4.94142807 -0.04628159 6.24142242 -0.05366852 7.58081055 -0.0612793 C8.24355673 -0.06535482 8.90630291 -0.06943035 9.58913231 -0.07362938 C13.09734152 -0.09446897 16.60551187 -0.10877953 20.11376953 -0.11816406 C23.72860463 -0.12922202 27.34282305 -0.16361973 30.95744038 -0.20333576 C33.74479785 -0.2295388 36.53200919 -0.23785911 39.31947899 -0.24144554 C41.29700373 -0.24865603 43.2744284 -0.27507844 45.25178528 -0.30183411 C56.62840152 -0.2743531 56.62840152 -0.2743531 61.1550293 4.17700195 C63.2546063 7.47332514 63.37206958 10.06131012 63.2800293 13.92700195 C63.26198242 14.9118457 63.24393555 15.89668945 63.2253418 16.91137695 C63.20213867 17.6590332 63.17893555 18.40668945 63.1550293 19.17700195 C62.17570183 19.17580856 62.17570183 19.17580856 61.17658997 19.17459106 C54.37912702 19.1721527 47.58280638 19.21133471 40.78564453 19.2746582 C38.24924019 19.29282287 35.71273681 19.30038589 33.17626953 19.29711914 C29.52908631 19.29426364 25.8839592 19.32956662 22.23706055 19.37231445 C21.10355667 19.36322052 19.9700528 19.35412659 18.80220032 19.34475708 C17.21111702 19.37410843 17.21111702 19.37410843 15.58789062 19.40405273 C14.19223625 19.41071457 14.19223625 19.41071457 12.76838684 19.41751099 C8.98145544 20.51806464 7.02364642 22.82614379 5.1550293 26.17700195 C4.44992127 29.42227379 4.49364128 32.58030528 4.54270935 35.8911438 C4.53717594 36.86377257 4.53164252 37.83640135 4.52594143 38.83850372 C4.51336922 42.09516003 4.53634705 45.35059088 4.55908203 48.60717773 C4.55717809 50.94324521 4.55302263 53.27931178 4.54678345 55.6153717 C4.53798856 60.64584688 4.54475709 65.67597726 4.56344414 70.70642471 C4.59006447 77.99254978 4.58708584 85.27844803 4.57485832 92.56458972 C4.5554695 104.40384672 4.55540077 116.24301426 4.5703125 128.08227539 C4.57119863 128.79049159 4.57208477 129.49870778 4.57299776 130.22838508 C4.57663118 133.0973668 4.58034854 135.96634841 4.58416432 138.8353299 C4.59461388 146.72005213 4.60286825 154.60477549 4.609375 162.48950195 C4.60996323 163.19503272 4.61055147 163.90056348 4.61115753 164.62747397 C4.62045599 176.41603215 4.61392982 188.20453696 4.59706455 199.99308574 C4.58665378 207.89948662 4.5972028 215.80558167 4.62297237 223.71194768 C4.63517737 228.64117578 4.63092409 233.57029347 4.62239456 238.49952507 C4.62186121 240.77788006 4.62815122 243.05624894 4.64193535 245.3345623 C4.73246379 261.06740062 4.28594986 274.88747255 -6.8449707 287.17700195 C-16.31091749 295.80683987 -26.84404133 300.0197772 -39.67700195 299.55981445 C-53.09352016 297.93858291 -62.55780744 290.3383738 -70.8449707 280.17700195 C-70.5149707 279.18700195 -70.1849707 278.19700195 -69.8449707 277.17700195 C-69.04317383 277.49797852 -68.24137695 277.81895508 -67.4152832 278.1496582 C-57.34569662 281.04714318 -44.85854194 280.54590648 -35.4855957 275.83325195 C-25.19445189 269.37845169 -18.73901992 260.951672 -15.27293038 249.24493206 C-14.82648719 247.08768835 -14.72011303 245.15500425 -14.72027206 242.95340157 C-14.71668564 241.69298316 -14.71668564 241.69298316 -14.71302676 240.40710175 C-14.71545925 239.48901824 -14.71789175 238.57093474 -14.72039795 237.62503052 C-14.71828273 236.15617521 -14.71828273 236.15617521 -14.71612477 234.65764606 C-14.71246681 231.36737145 -14.71581044 228.0771398 -14.71899414 224.78686523 C-14.71759961 222.43150804 -14.71570044 220.0761511 -14.71333313 217.72079468 C-14.7088335 212.64401167 -14.70697999 207.56723676 -14.70687103 202.49045181 C-14.70573198 194.46528456 -14.69296645 186.44015834 -14.67730713 178.41500854 C-14.67470137 177.04773241 -14.67210256 175.68045625 -14.6695106 174.31318009 C-14.66557222 172.24110427 -14.66162569 170.16902846 -14.65764938 168.09695271 C-14.64270589 160.28656116 -14.62907972 152.47616791 -14.61694336 144.66577148 C-14.6158298 143.95185981 -14.61471624 143.23794813 -14.61356893 142.50240277 C-14.59599112 130.93162016 -14.59312509 119.36087251 -14.59479377 107.79007877 C-14.59607281 95.90891273 -14.57833816 84.02787685 -14.5437758 72.14676082 C-14.52497767 65.47649549 -14.51599567 58.80643141 -14.52825165 52.13614273 C-14.5396653 45.8635245 -14.528038 39.59137653 -14.49861717 33.31882095 C-14.49196202 31.01538952 -14.49386815 28.71191523 -14.50491524 26.40850067 C-14.51873705 23.26608151 -14.50194887 20.12526096 -14.47747803 16.98294067 C-14.4945111 15.61250758 -14.4945111 15.61250758 -14.51188827 14.21438897 C-14.44700952 9.93620478 -14.19722617 7.05009462 -11.492939 3.62663078 C-7.69602265 0.11411299 -4.98866097 0.04637779 0 0 Z " fill="#01EEE7" transform="translate(270.844970703125,76.822998046875)"/>
<path d="M0 0 C1.54074116 -0.08221346 3.08280654 -0.13973295 4.625 -0.1875 C5.48351562 -0.22230469 6.34203125 -0.25710937 7.2265625 -0.29296875 C15.27819066 0.55755535 21.72783208 7.03051328 26.98989868 12.7428894 C32.7035422 19.91585741 31.82566686 28.43538748 31.54296875 37.16015625 C31.52950461 39.08195509 31.52158071 41.00379982 31.51887512 42.92564392 C31.49902381 46.93223937 31.43362592 50.93438535 31.33081055 54.93969727 C31.20059983 60.03929472 31.15313267 65.1352303 31.13602734 70.23633671 C31.11901951 74.19782478 31.07414547 78.15858492 31.01952553 82.11971855 C30.99380523 83.99848077 30.9726996 85.87731273 30.95656395 87.75618172 C30.77616648 103.55393784 28.3932622 115.93126725 17.26171875 127.86328125 C8.34553486 136.48410501 -1.16542982 138.46187829 -13.1496582 138.43139648 C-18.36474356 138.29669753 -22.98376012 137.42584901 -28 136 C-28 135.34 -28 134.68 -28 134 C-28.66 133.814375 -29.32 133.62875 -30 133.4375 C-39.24494529 129.00763038 -45.34328336 120.46085243 -49.17578125 111.140625 C-51.91255335 100.71235594 -50.68994632 88.13849428 -45.74609375 78.57421875 C-39.67252826 68.72743001 -30.89628891 62.6320963 -20 59 C-18.06377964 58.87427141 -16.12592053 58.77283927 -14.1875 58.6875 C-8.87489881 58.2823016 -5.92724693 57.6088215 -2 54 C-1.01896712 51.05690137 -0.84778313 49.0503097 -0.79467773 45.9777832 C-0.77473251 44.95695145 -0.75478729 43.93611969 -0.73423767 42.88435364 C-0.71752518 41.78427475 -0.70081268 40.68419586 -0.68359375 39.55078125 C-0.66281265 38.4230278 -0.64203156 37.29527435 -0.62062073 36.13334656 C-0.55517153 32.5264604 -0.49626156 28.91950071 -0.4375 25.3125 C-0.39431039 22.86913298 -0.35069596 20.42577344 -0.30664062 17.98242188 C-0.19949484 11.98835926 -0.09771971 5.99422329 0 0 Z " fill="#85A2A2" transform="translate(227,219)"/>
<path d="M0 0 C0.90508301 -0.02231689 1.81016602 -0.04463379 2.74267578 -0.06762695 C6.95079106 -0.05303461 9.32617641 0.06976895 12.99609375 2.27734375 C16.23476476 5.88093544 16.05005818 8.96958957 16 13.625 C15.99097656 14.71167969 15.98195312 15.79835937 15.97265625 16.91796875 C15.95525391 18.16513672 15.95525391 18.16513672 15.9375 19.4375 C14.95652344 19.53546875 13.97554688 19.6334375 12.96484375 19.734375 C-11.94356414 22.4089153 -37.99402048 31.5694042 -55.7109375 50.16796875 C-57.0625 51.4375 -57.0625 51.4375 -59.0625 51.4375 C-59.30871094 52.00726563 -59.55492187 52.57703125 -59.80859375 53.1640625 C-61.26935319 55.81254223 -63.02194549 57.63897276 -65.125 59.8125 C-78.51474463 74.49178665 -86.29872756 92.34796147 -91.0625 111.4375 C-91.31 112.40558594 -91.5575 113.37367188 -91.8125 114.37109375 C-97.76645322 142.85910604 -90.50776438 173.73107047 -74.85668945 197.85888672 C-72.0625 202.17006277 -72.0625 202.17006277 -72.0625 205.4375 C-94.68288559 183.99050617 -111.3378365 156.72714827 -112.3984375 124.6875 C-112.82698701 90.31406153 -103.34466063 60.64567737 -79.43920898 35.41357422 C-64.4329147 20.06720033 -45.73124691 9.17257123 -25.0625 3.4375 C-23.97066406 3.11910156 -22.87882812 2.80070313 -21.75390625 2.47265625 C-14.5130724 0.62193664 -7.44031488 0.11048708 0 0 Z " fill="#02EEE7" transform="translate(211.0625,200.5625)"/>
<path d="M0 0 C1.59360174 -0.03392246 3.18741339 -0.05807314 4.78125 -0.078125 C6.1125293 -0.09987793 6.1125293 -0.09987793 7.47070312 -0.12207031 C10.94151107 0.04543972 13.16870386 1.0180927 16 3 C18.20976643 6.3454498 18.25803506 9.20646597 18.2746582 13.15795898 C18.28419022 14.40282578 18.29372223 15.64769257 18.30354309 16.93028259 C18.30328165 18.28555327 18.30234455 19.64082395 18.30078125 20.99609375 C18.30467016 22.39087552 18.30900524 23.78565611 18.31376648 25.18043518 C18.32122101 28.10153037 18.32094304 31.02250468 18.31567383 33.94360352 C18.30988017 37.68061218 18.32681082 41.41712506 18.3500185 45.15405178 C18.36477491 48.03403093 18.36562498 50.91389119 18.36250877 53.79390144 C18.36302103 55.17136683 18.36824088 56.54883903 18.37832069 57.92626762 C18.39070327 59.85502187 18.38194083 61.78387651 18.37231445 63.71264648 C18.37294388 64.80866684 18.3735733 65.90468719 18.3742218 67.03392029 C17.9495769 70.39965322 16.98489341 72.27495558 15 75 C12.01335377 77.06191058 9.44832777 77.23956775 5.875 77.375 C-4.84396755 78.21598283 -14.88119975 83.32995279 -22.25 91.1875 C-29.65328079 100.42613453 -31.61907064 110.50297385 -31 122 C-30.52461171 124.78057301 -29.82296784 127.28904712 -29 130 C-28.66005108 131.33166198 -28.32505835 132.66462516 -28 134 C-36.7630662 131.53538763 -41.96978562 124.09259932 -46.5546875 116.74609375 C-51.45022564 107.44457128 -51.28635655 96.16451442 -48.875 86.0625 C-45.7190231 76.27163213 -39.27203729 68.59733491 -30.37109375 63.4921875 C-24.85133226 60.68008194 -20.41540973 58.96168471 -14.1875 58.6875 C-8.87489881 58.2823016 -5.92724693 57.6088215 -2 54 C-1.01896712 51.05690137 -0.84778313 49.0503097 -0.79467773 45.9777832 C-0.77473251 44.95695145 -0.75478729 43.93611969 -0.73423767 42.88435364 C-0.71752518 41.78427475 -0.70081268 40.68419586 -0.68359375 39.55078125 C-0.66281265 38.4230278 -0.64203156 37.29527435 -0.62062073 36.13334656 C-0.55517153 32.5264604 -0.49626156 28.91950071 -0.4375 25.3125 C-0.39431039 22.86913298 -0.35069596 20.42577344 -0.30664062 17.98242188 C-0.19949484 11.98835926 -0.09771971 5.99422329 0 0 Z " fill="#FB0D54" transform="translate(227,219)"/>
<path d="M0 0 C1.66192721 -0.19246583 3.33066077 -0.32636193 5 -0.4375 C5.928125 -0.51871094 6.85625 -0.59992188 7.8125 -0.68359375 C16.94024271 1.27394911 24.8813522 12.75310358 31.375 19.27734375 C32.55161924 20.45583183 33.72846225 21.63409653 34.90551758 22.81214905 C37.97860807 25.88902808 41.04868155 28.9688999 44.11810303 32.04943848 C47.26048674 35.20211573 50.40576071 38.35190669 53.55078125 41.50195312 C59.70332807 47.66517254 65.85268562 53.83156165 72 60 C65.90262198 63.04868901 53.47249606 59.05263825 47.25 57.25 C29.40402328 51.18412614 15.33967304 40.06289059 6.51171875 23.1484375 C5.25609466 20.45940184 4.10635937 17.75332615 3 15 C2.6803125 14.26652344 2.360625 13.53304687 2.03125 12.77734375 C0.14892069 8.25452471 -0.29983021 4.79728334 0 0 Z " fill="#819E9D" transform="translate(335,96)"/>
<path d="M0 0 C2.94155712 1.10308392 5.5696614 2.32244985 8.3125 3.875 C17.30828786 8.42400636 27.77058058 10.06483252 37.72265625 10.73828125 C41.02153163 11.11739729 43.31194303 12.07011295 46 14 C48.74888695 18.24827983 48.1915227 23.11617113 48 28 C35.48530348 29.25146965 22.85856327 22.58278885 13.375 14.86328125 C8.47965842 10.57257263 4.04062866 6.103952 0 1 C0 0.67 0 0.34 0 0 Z " fill="#01EBE4" transform="translate(365,145)"/>
<path d="M0 0 C9.83178808 -0.61986755 9.83178808 -0.61986755 14.0625 1.625 C17.90970082 6.34092359 18.3045539 11.72262912 18.875 17.625 C19.80829463 26.1078941 21.82636493 34.01843032 25.8125 41.625 C26.204375 42.40875 26.59625 43.1925 27 44 C26.67 44.66 26.34 45.32 26 46 C12.95843278 35.16025582 5.45040266 23.00118212 0 7 C-0.21735707 4.59904922 -0.15102143 2.41634296 0 0 Z " fill="#F80F54" transform="translate(335,96)"/>
<path d="M0 0 C4.54884466 3.82102951 8.94716034 7.6506111 13 12 C13 12.66 13 13.32 13 14 C9.04 13.67 5.08 13.34 1 13 C0.67 8.71 0.34 4.42 0 0 Z " fill="#809D9D" transform="translate(226,206)"/>
<path d="M0 0 C4.89599781 4.01471821 8.98528179 8.10400219 13 13 C9.04 13 5.08 13 1 13 C0.67 8.71 0.34 4.42 0 0 Z " fill="#7A999A" transform="translate(333,83)"/>
<path d="M0 0 C4.53287116 3.73295272 8.37382288 7.38486548 12 12 C8.37 12 4.74 12 1 12 C0.67 8.04 0.34 4.08 0 0 Z " fill="#8AADAD" transform="translate(412,162)"/>
</svg>
