<?xml version="1.0" encoding="UTF-8"?>
<svg version="1.1" xmlns="http://www.w3.org/2000/svg" width="512" height="512">
    <path
        d="M0 0 C1.01790619 0.00215515 2.03581238 0.0043103 3.08456421 0.00653076 C17.69363523 0.05620146 32.02575853 0.30709809 46.375 3.3125 C47.34985352 3.51117676 48.32470703 3.70985352 49.32910156 3.91455078 C97.7109774 14.03517194 141.69928269 35.9516877 177.375 70.3125 C178.3640332 71.26068604 178.3640332 71.26068604 179.37304688 72.22802734 C188.86130305 81.37247479 197.6012044 90.66984009 205.375 101.3125 C206.23306152 102.46355017 207.09113451 103.61459177 207.94921875 104.765625 C213.98736829 112.95680614 219.34595521 121.47054105 224.375 130.3125 C224.73948242 130.94430176 225.10396484 131.57610352 225.47949219 132.22705078 C247.08534998 169.97532572 256.85198095 212.74189997 256.6875 255.9375 C256.68534485 256.95540619 256.6831897 257.97331238 256.68096924 259.02206421 C256.63129854 273.63113523 256.38040191 287.96325853 253.375 302.3125 C253.07698486 303.77478027 253.07698486 303.77478027 252.77294922 305.26660156 C242.65232806 353.6484774 220.7358123 397.63678269 186.375 433.3125 C185.74287598 433.97185547 185.11075195 434.63121094 184.45947266 435.31054688 C175.31502521 444.79880305 166.01765991 453.5387044 155.375 461.3125 C154.22394983 462.17056152 153.07290823 463.02863451 151.921875 463.88671875 C143.73224019 469.92427396 135.22961724 475.30707302 126.375 480.3125 C125.66778809 480.7146875 124.96057617 481.116875 124.23193359 481.53125 C101.09654164 494.5566741 75.92537591 503.30551461 49.9375 508.625 C49.21860596 508.77235596 48.49971191 508.91971191 47.7590332 509.0715332 C33.08339502 511.86090125 18.55831162 512.66142619 3.64770508 512.62817383 C0.70811513 512.6250221 -2.2304558 512.64854926 -5.16992188 512.67382812 C-18.54306192 512.71848737 -31.43916711 511.51301542 -44.625 509.3125 C-46.33055054 509.03031616 -46.33055054 509.03031616 -48.07055664 508.74243164 C-91.33802759 500.97044532 -132.38793216 480.98345309 -165.625 452.3125 C-166.37007813 451.67828125 -167.11515625 451.0440625 -167.8828125 450.390625 C-181.38779833 438.57948485 -194.05918743 425.82889772 -204.625 411.3125 C-205.48149066 410.16255169 -206.33826433 409.01281411 -207.1953125 407.86328125 C-213.23534209 399.67315742 -218.61867614 391.16870382 -223.625 382.3125 C-224.0271875 381.60528809 -224.429375 380.89807617 -224.84375 380.16943359 C-237.8691741 357.03404164 -246.61801461 331.86287591 -251.9375 305.875 C-252.08485596 305.15610596 -252.23221191 304.43721191 -252.3840332 303.6965332 C-255.35789088 288.05024391 -255.99800362 272.57681954 -255.9375 256.6875 C-255.93534485 255.66959381 -255.9331897 254.65168762 -255.93096924 253.60293579 C-255.88129854 238.99386477 -255.63040191 224.66174147 -252.625 210.3125 C-252.42632324 209.33764648 -252.22764648 208.36279297 -252.02294922 207.35839844 C-241.90232806 158.9765226 -219.9858123 114.98821731 -185.625 79.3125 C-184.99287598 78.65314453 -184.36075195 77.99378906 -183.70947266 77.31445312 C-174.56502521 67.82619695 -165.26765991 59.0862956 -154.625 51.3125 C-153.47394983 50.45443848 -152.32290823 49.59636549 -151.171875 48.73828125 C-142.98224019 42.70072604 -134.47961724 37.31792698 -125.625 32.3125 C-124.91778809 31.9103125 -124.21057617 31.508125 -123.48193359 31.09375 C-100.34654164 18.0683259 -75.17537591 9.31948539 -49.1875 4 C-48.46860596 3.85264404 -47.74971191 3.70528809 -47.0090332 3.5534668 C-31.36274391 0.57960912 -15.88931954 -0.06050362 0 0 Z "
        fill="#13C7CD" transform="translate(255.625,-0.3125)" />
    <path
        d="M0 0 C1.13434982 -0.00637985 2.26869965 -0.0127597 3.43742371 -0.01933289 C5.25951103 -0.02100212 5.25951103 -0.02100212 7.1184082 -0.02270508 C8.99844292 -0.02769768 8.99844292 -0.02769768 10.91645813 -0.03279114 C13.56169193 -0.03784843 16.20682289 -0.04063295 18.85205078 -0.04003906 C22.24507142 -0.03993702 25.63788479 -0.0536418 29.03085613 -0.07081127 C32.26836588 -0.08457499 35.50587314 -0.08401873 38.7434082 -0.08520508 C39.96420578 -0.09239059 41.18500336 -0.09957611 42.4427948 -0.10697937 C44.13013481 -0.10236443 44.13013481 -0.10236443 45.8515625 -0.09765625 C46.84463913 -0.09908127 47.83771576 -0.10050629 48.86088562 -0.10197449 C51.23168945 0.14526367 51.23168945 0.14526367 53.23168945 2.14526367 C53.47892761 4.08068848 53.47892761 4.08068848 53.47460938 6.47143555 C53.477686 7.36576294 53.48076263 8.26009033 53.4839325 9.18151855 C53.47315422 10.63310364 53.47315422 10.63310364 53.4621582 12.11401367 C53.46169998 13.10526245 53.46124176 14.09651123 53.46076965 15.11779785 C53.45774527 17.21599523 53.44985346 19.31419032 53.4375 21.41235352 C53.41926459 24.63199784 53.41699014 27.85135439 53.41723633 31.07104492 C53.41232044 33.10620367 53.40649181 35.14136046 53.3996582 37.17651367 C53.39854538 38.14423706 53.39743256 39.11196045 53.39628601 40.10900879 C53.38990616 41.00333618 53.38352631 41.89766357 53.37695312 42.8190918 C53.37314133 43.60803833 53.36932953 44.39698486 53.36540222 45.20983887 C53.23168945 47.14526367 53.23168945 47.14526367 52.23168945 49.14526367 C51.23314941 49.15460938 50.23460937 49.16395508 49.20581055 49.17358398 C45.48173303 49.21362112 41.75846979 49.27941633 38.03491211 49.3527832 C36.42694604 49.38091372 34.81884373 49.40216756 33.21069336 49.41625977 C30.89146578 49.43780058 28.5738625 49.48450239 26.25512695 49.53588867 C25.18601578 49.53773163 25.18601578 49.53773163 24.0953064 49.53961182 C19.02594352 49.68655857 16.08869265 50.87932641 12.23168945 54.14526367 C8.99635046 58.12718639 8.76550631 61.89228731 8.7199707 66.85229492 C8.7020195 67.57768967 8.6840683 68.30308441 8.66557312 69.05046082 C8.61166729 71.35283709 8.57763945 73.65500847 8.54418945 75.95776367 C8.51099878 77.52484936 8.47650749 79.09190807 8.44067383 80.65893555 C8.35595286 84.48756324 8.28904878 88.31613227 8.23168945 92.14526367 C9.52905029 92.14002686 10.82641113 92.13479004 12.16308594 92.12939453 C16.95816361 92.11134898 21.75323825 92.0998333 26.54833984 92.09033203 C28.62712101 92.08529079 30.70589862 92.07845793 32.78466797 92.06982422 C35.76571531 92.05774945 38.74671595 92.05203343 41.7277832 92.04760742 C43.13090004 92.03986549 43.13090004 92.03986549 44.56236267 92.03196716 C45.42317947 92.03189163 46.28399628 92.0318161 47.17089844 92.03173828 C47.93256821 92.02951767 48.69423798 92.02729706 49.47898865 92.02500916 C51.23168945 92.14526367 51.23168945 92.14526367 52.23168945 93.14526367 C52.28515625 94.89746094 52.28515625 94.89746094 52.1809082 97.21166992 C52.14296143 98.07888672 52.10501465 98.94610352 52.06591797 99.83959961 C52.01749756 100.78609375 51.96907715 101.73258789 51.91918945 102.70776367 C51.87141357 103.67617187 51.8236377 104.64458008 51.77441406 105.64233398 C51.37689126 113.23350225 50.87649379 120.81611002 50.29418945 128.39526367 C50.21966553 129.43626221 50.1451416 130.47726074 50.06835938 131.54980469 C49.98948486 132.5145874 49.91061035 133.47937012 49.8293457 134.47338867 C49.72891968 135.75584473 49.72891968 135.75584473 49.62646484 137.06420898 C49.23168945 139.14526367 49.23168945 139.14526367 47.23168945 141.14526367 C44.29072208 141.32065803 41.44515597 141.37658743 38.50512695 141.34057617 C37.21090317 141.33633133 37.21090317 141.33633133 35.89053345 141.33200073 C33.12911226 141.320787 30.36801295 141.29568051 27.60668945 141.27026367 C25.73690246 141.2602354 23.8671104 141.25110929 21.99731445 141.24291992 C17.40864837 141.22084379 12.82022352 141.18630602 8.23168945 141.14526367 C8.23353304 141.87009634 8.23537663 142.59492901 8.23727608 143.3417263 C8.28139902 160.9591381 8.31451865 178.5765359 8.3353138 196.19399071 C8.34563685 204.71357581 8.35971677 213.23312408 8.38256836 221.75268555 C8.40247082 229.17627061 8.4153984 236.59982901 8.41986644 244.02344 C8.42247917 247.95605305 8.42864143 251.88858979 8.44314957 255.82117844 C8.45668389 259.51962909 8.46092056 263.21797172 8.45790482 266.91644478 C8.45872085 268.92710367 8.46950414 270.93775069 8.48052979 272.94837952 C8.47778046 274.13752457 8.47503113 275.32666962 8.47219849 276.55184937 C8.47404207 277.58978827 8.47588566 278.62772717 8.47778511 279.69711876 C8.23168945 282.14526367 8.23168945 282.14526367 6.23168945 284.14526367 C3.95458984 284.39923096 3.95458984 284.39923096 1.0793457 284.40405273 C0.00483154 284.41035706 -1.06968262 284.41666138 -2.17675781 284.42315674 C-3.34134521 284.41910828 -4.50593262 284.41505981 -5.70581055 284.41088867 C-6.89682373 284.41280212 -8.08783691 284.41471558 -9.31494141 284.41668701 C-11.83683483 284.41804997 -14.35873524 284.41434583 -16.88061523 284.40600586 C-20.75219403 284.3953082 -24.62330877 284.40589773 -28.49487305 284.41870117 C-30.94018658 284.4173796 -33.38549982 284.41481725 -35.83081055 284.41088867 C-37.57769165 284.41696136 -37.57769165 284.41696136 -39.35986328 284.42315674 C-40.97163452 284.41370026 -40.97163452 284.41370026 -42.6159668 284.40405273 C-43.56479736 284.40246155 -44.51362793 284.40087036 -45.49121094 284.39923096 C-47.76831055 284.14526367 -47.76831055 284.14526367 -49.76831055 282.14526367 C-50.0144062 279.69711876 -50.0144062 279.69711876 -50.00881958 276.55184937 C-50.01156891 275.36270432 -50.01431824 274.17355927 -50.01715088 272.94837952 C-50.00996033 271.63711594 -50.00276978 270.32585236 -49.99536133 268.97485352 C-49.99479741 267.5854137 -49.99511338 266.19597328 -49.99624634 264.80653381 C-49.99682163 261.02779525 -49.98503887 257.24918292 -49.97109842 253.47047377 C-49.95862041 249.52399296 -49.95742288 245.57750945 -49.95504761 241.63101196 C-49.9488242 234.15473987 -49.93240179 226.67852607 -49.91234863 219.20227969 C-49.89001635 210.6921253 -49.87900293 202.18196817 -49.86895776 193.67179179 C-49.84803627 176.16291533 -49.81284363 158.65409566 -49.76831055 141.14526367 C-50.57574707 141.1557373 -51.38318359 141.16621094 -52.21508789 141.17700195 C-55.85779737 141.21846198 -59.5004573 141.24455805 -63.14331055 141.27026367 C-64.41432617 141.28702148 -65.6853418 141.3037793 -66.99487305 141.32104492 C-68.2065918 141.32749023 -69.41831055 141.33393555 -70.66674805 141.34057617 C-71.78742676 141.3510498 -72.90810547 141.36152344 -74.06274414 141.37231445 C-76.76831055 141.14526367 -76.76831055 141.14526367 -78.76831055 139.14526367 C-79.02227783 137.20983887 -79.02227783 137.20983887 -79.02709961 134.8190918 C-79.03340393 133.9247644 -79.03970825 133.03043701 -79.04620361 132.10900879 C-79.04215515 131.1412854 -79.03810669 130.17356201 -79.03393555 129.17651367 C-79.035849 128.18526489 -79.03776245 127.19401611 -79.03973389 126.17272949 C-79.0410964 124.07454169 -79.03739537 121.97634548 -79.02905273 119.87817383 C-79.01835426 116.65841821 -79.02894591 113.43922059 -79.04174805 110.21948242 C-79.04042646 108.18432493 -79.0378641 106.1491678 -79.03393555 104.11401367 C-79.04000824 102.66242859 -79.04000824 102.66242859 -79.04620361 101.18151855 C-79.03989929 100.28719116 -79.03359497 99.39286377 -79.02709961 98.47143555 C-79.02550842 97.68248901 -79.02391724 96.89354248 -79.02227783 96.08068848 C-78.76831055 94.14526367 -78.76831055 94.14526367 -76.76831055 92.14526367 C-74.06274414 91.91821289 -74.06274414 91.91821289 -70.66674805 91.94995117 C-69.4550293 91.95639648 -68.24331055 91.9628418 -66.99487305 91.96948242 C-65.72385742 91.98624023 -64.4528418 92.00299805 -63.14331055 92.02026367 C-61.86456055 92.02928711 -60.58581055 92.03831055 -59.26831055 92.04760742 C-56.10145888 92.07124064 -52.93497631 92.10418738 -49.76831055 92.14526367 C-49.77497238 91.58309143 -49.78163422 91.02091919 -49.78849792 90.44171143 C-49.85540211 84.5358254 -49.90033709 78.63004882 -49.93310547 72.72387695 C-49.94809594 70.52624125 -49.96849521 68.32863496 -49.99462891 66.13110352 C-50.23039734 45.78105196 -48.93021824 29.94916778 -34.25268555 14.43432617 C-24.85139233 5.77212833 -12.85825294 0.04923643 0 0 Z "
        fill="#000000" transform="translate(268.768310546875,113.854736328125)" />
</svg>