<?xml version="1.0" encoding="UTF-8"?>
<svg version="1.1" xmlns="http://www.w3.org/2000/svg" width="512" height="512">
    <path
        d="M0 0 C1.45108658 0.00273422 1.45108658 0.00273422 2.93148804 0.00552368 C17.26440977 0.05095174 31.21023917 0.55983928 45.3125 3.3125 C46.65803955 3.55395752 46.65803955 3.55395752 48.03076172 3.80029297 C107.84088904 14.62287989 165.35495829 48.68064457 202.3125 97.3125 C202.72918945 97.85277832 203.14587891 98.39305664 203.57519531 98.94970703 C211.2584873 108.9447116 218.00092968 119.40459036 224.3125 130.3125 C224.70679199 130.98974121 225.10108398 131.66698242 225.50732422 132.36474609 C238.68961173 155.2833756 247.29510918 180.85822563 252.625 206.6875 C252.77243652 207.39817627 252.91987305 208.10885254 253.07177734 208.84106445 C256.05713787 224.48358366 256.6873098 240.11919606 256.625 256 C256.62226578 257.45108658 256.62226578 257.45108658 256.61947632 258.93148804 C256.57404826 273.26440977 256.06516072 287.21023917 253.3125 301.3125 C253.15152832 302.20952637 252.99055664 303.10655273 252.82470703 304.03076172 C242.00212011 363.84088904 207.94435543 421.35495829 159.3125 458.3125 C158.77222168 458.72918945 158.23194336 459.14587891 157.67529297 459.57519531 C147.6802884 467.2584873 137.22040964 474.00092968 126.3125 480.3125 C125.63525879 480.70679199 124.95801758 481.10108398 124.26025391 481.50732422 C101.3416244 494.68961173 75.76677437 503.29510918 49.9375 508.625 C49.22682373 508.77243652 48.51614746 508.91987305 47.78393555 509.07177734 C32.14141634 512.05713787 16.50580394 512.6873098 0.625 512.625 C-0.34239105 512.62317719 -1.3097821 512.62135437 -2.30648804 512.61947632 C-16.63940977 512.57404826 -30.58523917 512.06516072 -44.6875 509.3125 C-45.58452637 509.15152832 -46.48155273 508.99055664 -47.40576172 508.82470703 C-107.21588904 498.00212011 -164.72995829 463.94435543 -201.6875 415.3125 C-202.10418945 414.77222168 -202.52087891 414.23194336 -202.95019531 413.67529297 C-210.6334873 403.6802884 -217.37592968 393.22040964 -223.6875 382.3125 C-224.08179199 381.63525879 -224.47608398 380.95801758 -224.88232422 380.26025391 C-238.06461173 357.3416244 -246.67010918 331.76677437 -252 305.9375 C-252.14743652 305.22682373 -252.29487305 304.51614746 -252.44677734 303.78393555 C-255.43213787 288.14141634 -256.0623098 272.50580394 -256 256.625 C-255.99817719 255.65760895 -255.99635437 254.6902179 -255.99447632 253.69351196 C-255.94904826 239.36059023 -255.44016072 225.41476083 -252.6875 211.3125 C-252.44604248 209.96696045 -252.44604248 209.96696045 -252.19970703 208.59423828 C-241.37712011 148.78411096 -207.31935543 91.27004171 -158.6875 54.3125 C-158.14722168 53.89581055 -157.60694336 53.47912109 -157.05029297 53.04980469 C-147.0552884 45.3665127 -136.59540964 38.62407032 -125.6875 32.3125 C-125.01025879 31.91820801 -124.33301758 31.52391602 -123.63525391 31.11767578 C-100.7166244 17.93538827 -75.14177437 9.32989082 -49.3125 4 C-48.60182373 3.85256348 -47.89114746 3.70512695 -47.15893555 3.55322266 C-31.51641634 0.56786213 -15.88080394 -0.0623098 0 0 Z "
        fill="#000000" transform="translate(255.6875,-0.3125)" />
    <path
        d="M0 0 C1.45108658 0.00273422 1.45108658 0.00273422 2.93148804 0.00552368 C17.26440977 0.05095174 31.21023917 0.55983928 45.3125 3.3125 C46.65803955 3.55395752 46.65803955 3.55395752 48.03076172 3.80029297 C107.84088904 14.62287989 165.35495829 48.68064457 202.3125 97.3125 C202.72918945 97.85277832 203.14587891 98.39305664 203.57519531 98.94970703 C211.2584873 108.9447116 218.00092968 119.40459036 224.3125 130.3125 C224.70679199 130.98974121 225.10108398 131.66698242 225.50732422 132.36474609 C238.68961173 155.2833756 247.29510918 180.85822563 252.625 206.6875 C252.77243652 207.39817627 252.91987305 208.10885254 253.07177734 208.84106445 C256.05713787 224.48358366 256.6873098 240.11919606 256.625 256 C256.62226578 257.45108658 256.62226578 257.45108658 256.61947632 258.93148804 C256.57404826 273.26440977 256.06516072 287.21023917 253.3125 301.3125 C253.15152832 302.20952637 252.99055664 303.10655273 252.82470703 304.03076172 C242.00212011 363.84088904 207.94435543 421.35495829 159.3125 458.3125 C158.77222168 458.72918945 158.23194336 459.14587891 157.67529297 459.57519531 C147.6802884 467.2584873 137.22040964 474.00092968 126.3125 480.3125 C125.63525879 480.70679199 124.95801758 481.10108398 124.26025391 481.50732422 C101.3416244 494.68961173 75.76677437 503.29510918 49.9375 508.625 C49.22682373 508.77243652 48.51614746 508.91987305 47.78393555 509.07177734 C32.14141634 512.05713787 16.50580394 512.6873098 0.625 512.625 C-0.34239105 512.62317719 -1.3097821 512.62135437 -2.30648804 512.61947632 C-16.63940977 512.57404826 -30.58523917 512.06516072 -44.6875 509.3125 C-45.58452637 509.15152832 -46.48155273 508.99055664 -47.40576172 508.82470703 C-107.21588904 498.00212011 -164.72995829 463.94435543 -201.6875 415.3125 C-202.10418945 414.77222168 -202.52087891 414.23194336 -202.95019531 413.67529297 C-210.6334873 403.6802884 -217.37592968 393.22040964 -223.6875 382.3125 C-224.08179199 381.63525879 -224.47608398 380.95801758 -224.88232422 380.26025391 C-238.06461173 357.3416244 -246.67010918 331.76677437 -252 305.9375 C-252.14743652 305.22682373 -252.29487305 304.51614746 -252.44677734 303.78393555 C-255.43213787 288.14141634 -256.0623098 272.50580394 -256 256.625 C-255.99817719 255.65760895 -255.99635437 254.6902179 -255.99447632 253.69351196 C-255.94904826 239.36059023 -255.44016072 225.41476083 -252.6875 211.3125 C-252.44604248 209.96696045 -252.44604248 209.96696045 -252.19970703 208.59423828 C-241.37712011 148.78411096 -207.31935543 91.27004171 -158.6875 54.3125 C-158.14722168 53.89581055 -157.60694336 53.47912109 -157.05029297 53.04980469 C-147.0552884 45.3665127 -136.59540964 38.62407032 -125.6875 32.3125 C-125.01025879 31.91820801 -124.33301758 31.52391602 -123.63525391 31.11767578 C-100.7166244 17.93538827 -75.14177437 9.32989082 -49.3125 4 C-48.60182373 3.85256348 -47.89114746 3.70512695 -47.15893555 3.55322266 C-31.51641634 0.56786213 -15.88080394 -0.0623098 0 0 Z M-153 116.1875 C-171.77087726 139.79560495 -176.79683558 164.14620644 -176.88037109 193.50976562 C-176.88829543 195.09335499 -176.89656571 196.67694265 -176.90515137 198.26052856 C-176.93109585 203.41325217 -176.94664821 208.5659828 -176.9609375 213.71875 C-176.96630799 215.50784812 -176.97168549 217.29694623 -176.97706985 219.08604431 C-176.9986555 226.53768465 -177.01738564 233.98932306 -177.02869225 241.44098663 C-177.04489868 252.04352626 -177.07804605 262.64569782 -177.13509309 273.24809885 C-177.17403696 280.74671604 -177.19335341 288.24523579 -177.19861281 295.74395132 C-177.20223212 300.20193162 -177.21388305 304.65951694 -177.24671555 309.11738586 C-177.45370984 336.07493972 -177.45370984 336.07493972 -171.6875 362.3125 C-171.0889772 364.18609192 -171.0889772 364.18609192 -170.47836304 366.09753418 C-161.77034616 391.94865344 -141.21053181 411.58166878 -117.52734375 423.96484375 C-95.40022811 434.32951174 -72.39788833 434.03404127 -48.52406645 433.88533282 C-43.85595416 433.86116759 -39.18784753 433.86444528 -34.51968384 433.86402893 C-26.69807005 433.85943106 -18.87670305 433.83598461 -11.05517578 433.79956055 C-2.04243372 433.75769811 6.97008753 433.74023548 15.98292124 433.7369408 C25.63951582 433.73333049 35.29603247 433.71446079 44.95259428 433.68982053 C47.71268591 433.6836249 50.4727716 433.67996824 53.23286819 433.67678642 C57.57845739 433.67084596 61.92389241 433.65442359 66.26941681 433.63018227 C67.85436433 433.6228043 69.43933118 433.61867439 71.02429581 433.61820221 C83.59664807 433.61083076 95.27843971 432.45644562 107.1875 428.1875 C108.0431958 427.88328125 108.8988916 427.5790625 109.78051758 427.265625 C121.10128118 423.09152425 131.12938319 417.1741847 140.3125 409.3125 C141.13363281 408.62414062 141.95476562 407.93578125 142.80078125 407.2265625 C157.88413364 394.18026377 167.05621306 377.99931116 173.3125 359.3125 C173.65410156 358.41660156 173.99570312 357.52070313 174.34765625 356.59765625 C177.38496756 346.25604164 177.60230646 335.87180424 177.57128906 325.18115234 C177.57400544 323.59284302 177.57756998 322.00453496 177.58190918 320.41622925 C177.59096304 316.13484417 177.58751687 311.85355638 177.58115101 307.57216978 C177.57604918 303.06427487 177.58079449 298.5563877 177.58392334 294.04849243 C177.58755312 286.47485884 177.58279224 278.90126436 177.57324219 271.32763672 C177.56238318 262.61629345 177.56586862 253.90504401 177.576895 245.19370306 C177.58602446 237.67561181 177.587225 230.15754853 177.58201766 222.63945353 C177.57892581 218.16661651 177.57841032 213.6938233 177.58509064 209.22098923 C177.59094558 205.00686725 177.58672135 200.79286384 177.57530212 196.57875443 C177.57269742 195.0479273 177.57334699 193.51708988 177.57782745 191.98626709 C177.61471865 178.07980836 177.48848217 163.17341201 172.625 150 C172.36444824 149.26128662 172.10389648 148.52257324 171.83544922 147.76147461 C161.92780595 120.65493785 141.299362 99.4140535 115.3125 87.3125 C112.26492189 86.0506224 109.18738277 84.92978895 106.0625 83.875 C105.01908447 83.52272339 105.01908447 83.52272339 103.95458984 83.16333008 C92.34942189 79.51085296 80.75035324 79.00969533 68.69384766 79.00610352 C67.05291372 78.99846493 65.41198331 78.99003458 63.77105713 78.98088074 C59.34480476 78.95908869 54.91862142 78.9501569 50.49232149 78.94505429 C47.71476604 78.94139069 44.93722811 78.93514026 42.15967941 78.9280529 C32.43440725 78.90360568 22.70918802 78.89051801 12.98388672 78.88696289 C3.97712663 78.88333749 -5.02929067 78.85350139 -14.03594625 78.81155831 C-21.81397395 78.77663159 -29.59188934 78.76141057 -37.36999476 78.76071686 C-41.99511213 78.75993123 -46.61988002 78.75152823 -51.24491501 78.72271919 C-90.87815124 78.49116228 -125.72300931 84.52446946 -153 116.1875 Z "
        fill="#00C8C6" transform="translate(255.6875,-0.3125)" />
    <path
        d="M0 0 C4.6761469 0.01778017 9.35228501 0.01404201 14.02845883 0.01327848 C21.86795942 0.01514122 29.7073035 0.03237131 37.54675412 0.05981779 C46.58158381 0.09133449 55.61624301 0.10181069 64.6511237 0.10034668 C74.32393657 0.0989916 83.99668472 0.11288686 93.66947794 0.13123989 C96.43612806 0.13548113 99.2027676 0.13691926 101.96942067 0.13771772 C106.32727115 0.13974033 110.68498102 0.15206061 115.04278493 0.17205 C116.63257095 0.17784345 118.22237316 0.18036235 119.81216931 0.17919493 C132.40178082 0.17345272 144.09001633 1.32151711 156.01574826 5.59643888 C156.87144406 5.90065763 157.72713986 6.20487638 158.60876584 6.51831388 C169.92952945 10.69241464 179.95763145 16.60975418 189.14074826 24.47143888 C189.96188107 25.15979826 190.78301389 25.84815763 191.62902951 26.55737638 C206.89876328 39.76488511 217.27953879 57.04638927 222.89074826 76.34643888 C223.10175168 77.05308683 223.3127551 77.75973478 223.53015256 78.48779631 C226.76716931 90.25767953 226.29060652 102.70098854 226.28601193 114.81152678 C226.28901165 116.40971787 226.29241602 118.00790824 226.29618955 119.6060977 C226.30494705 123.90765324 226.30736403 128.20918884 226.30800533 132.51075244 C226.30872008 135.20564699 226.31086227 137.90053659 226.31350255 140.5954299 C226.32272576 150.01740032 226.32684088 159.43935668 226.326051 168.86133146 C226.3254497 177.61313928 226.33601949 186.36488557 226.35179466 195.11667782 C226.36490394 202.66101702 226.37023354 210.20533617 226.36959559 217.74968666 C226.36934178 222.24244497 226.37212868 226.7351484 226.38277364 231.22789526 C226.39251298 235.45267242 226.39249415 239.67734282 226.38525701 243.90212393 C226.38421867 245.44353852 226.38652886 246.98495998 226.39261746 248.5263629 C226.43877106 261.02962794 225.25046163 272.53287616 221.01574826 284.34643888 C220.71152951 285.20213469 220.40731076 286.05783049 220.09387326 286.93945646 C215.91977251 298.26022007 210.00243296 308.28832207 202.14074826 317.47143888 C201.45238889 318.2925717 200.76402951 319.11370451 200.05481076 319.95972013 C187.00851203 335.04307253 170.82755942 344.21515194 152.14074826 350.47143888 C151.24484982 350.81304045 150.34895139 351.15464201 149.42590451 351.50659513 C138.92187447 354.59160753 128.3683362 354.77460411 117.52209592 354.77783537 C115.88116198 354.78547395 114.24023157 354.79390431 112.59930539 354.80305815 C108.17305303 354.82485019 103.74686968 354.83378198 99.32056975 354.83888459 C96.5430143 354.84254819 93.76547637 354.84879862 90.98792768 354.85588598 C81.26265552 354.8803332 71.53743628 354.89342087 61.81213498 354.89697599 C52.80537489 354.9006014 43.79895759 354.93043749 34.79230201 354.97238058 C27.01427431 355.00730729 19.23635892 355.02252831 11.4582535 355.02322203 C6.83313613 355.02400765 2.20836824 355.03241066 -2.41666675 355.06121969 C-39.82612194 355.27978418 -70.73057393 350.42280564 -98.85925174 323.47143888 C-119.26947617 302.18398418 -128.59458437 274.73670915 -128.32922244 245.57959318 C-128.3297332 243.98228643 -128.33200141 242.38497946 -128.33586001 240.78767729 C-128.34120749 236.51097245 -128.3220648 232.23471283 -128.29775906 227.95808721 C-128.27621373 223.45057489 -128.27704774 218.94306004 -128.275069 214.43550444 C-128.26865465 206.87668691 -128.24753246 199.31803316 -128.21594119 191.75928068 C-128.17558469 182.0912971 -128.15823375 172.42341967 -128.14863181 162.75536203 C-128.14029852 154.39122565 -128.12308441 146.02711116 -128.1035943 137.66299415 C-128.09956085 135.87971775 -128.09581898 134.09644067 -128.09237194 132.31316304 C-128.08251497 127.22954011 -128.06787681 122.14597873 -128.04553294 117.06239462 C-128.03947626 115.53107839 -128.03499026 113.99975491 -128.03229022 112.46842909 C-127.98445427 87.64209328 -127.98445427 87.64209328 -124.79675174 76.65893888 C-124.5805115 75.90395109 -124.36427127 75.1489633 -124.1414783 74.37109709 C-115.8417099 46.9732754 -96.34830746 24.6399897 -71.30847049 11.21753263 C-48.3556529 -0.40184388 -25.05002007 -0.11556109 0 0 Z M-58.04675174 38.03393888 C-58.70546268 38.36982023 -59.36417361 38.70570158 -60.04284549 39.05176115 C-67.01527945 42.80062674 -72.39627676 47.81218936 -77.85925174 53.47143888 C-78.96526736 54.53104826 -78.96526736 54.53104826 -80.09362674 55.61206388 C-84.3749138 59.95972749 -87.32604915 64.71484563 -90.10925174 70.09643888 C-90.5853992 70.99978971 -90.5853992 70.99978971 -91.0711658 71.92139006 C-97.08416557 84.2334971 -98.45268132 96.71744567 -98.36096072 110.19043303 C-98.36475526 111.80538225 -98.37026455 113.42032819 -98.3773334 115.0352664 C-98.39115648 119.37416447 -98.38021245 123.71266014 -98.36362219 128.05153537 C-98.34964398 132.62000782 -98.35624607 137.1884599 -98.35975528 141.75694609 C-98.36244713 149.42364214 -98.34906957 157.09018072 -98.32580447 164.75683928 C-98.29919176 173.58709131 -98.29745455 182.41708045 -98.30919284 191.24735886 C-98.32001717 199.78661376 -98.31374778 208.3257747 -98.29963756 216.86502218 C-98.29391894 220.47909566 -98.29392759 224.09309945 -98.29870296 227.70717382 C-98.30351813 231.9714591 -98.29318575 236.23546094 -98.2717483 240.49969244 C-98.26624184 242.05315778 -98.26565766 243.60665071 -98.27070117 245.16011763 C-98.33664929 268.40942907 -91.82222854 287.06948087 -75.67175174 304.15893888 C-59.59737949 319.70119399 -40.51180399 324.78485661 -18.8055408 324.74609709 C-17.18985645 324.75045049 -15.57417416 324.75563573 -13.9584949 324.76158476 C-9.59050223 324.77492068 -5.22259637 324.77555931 -0.85458732 324.77302146 C2.80304909 324.77194774 6.46066823 324.77684552 10.11830091 324.78162688 C18.75502841 324.7927041 27.39171242 324.79317001 36.02844357 324.78711271 C44.91083279 324.78107843 53.79306337 324.79337417 62.67542553 324.81468278 C70.32501398 324.83235298 77.9745522 324.83829149 85.62416029 324.83504504 C90.18242467 324.83324013 94.74057596 324.83578834 99.29882169 324.84975958 C103.59008043 324.86242128 107.88109383 324.86031578 112.17234921 324.84734869 C113.73752801 324.84500113 115.30272453 324.84765139 116.86788297 324.85597181 C138.86252197 324.9643639 158.86771478 318.90985281 174.82824826 303.34643888 C188.33623611 289.59586344 196.21898718 271.7558966 196.28791928 252.42859221 C196.29343432 251.41869144 196.29343432 251.41869144 196.29906076 250.38838863 C196.31000032 248.1510901 196.31392476 245.91383816 196.31775022 243.67651701 C196.32402235 242.06437362 196.33066981 240.45223165 196.33766294 238.84009123 C196.35862091 233.56096719 196.3690593 228.28184315 196.37902951 223.00268888 C196.38308051 221.17818007 196.38719753 219.3536714 196.39137959 217.52916288 C196.41041509 208.95254515 196.42464815 200.37593592 196.43299156 191.79930115 C196.44275053 181.9331515 196.46904189 172.06722701 196.50949246 162.20115662 C196.53976109 154.5532841 196.55447068 146.90547572 196.55777258 139.25754452 C196.56011125 134.70024645 196.56891607 130.14318934 196.59423375 125.5859561 C196.61770785 121.29140124 196.62167107 116.99724272 196.61147237 112.70264006 C196.61098152 111.13829041 196.61716654 109.57391994 196.63102841 108.00963163 C196.74200976 94.72782734 194.77290181 82.25188542 188.57824826 70.28393888 C188.24236691 69.62522795 187.90648557 68.96651701 187.560426 68.28784513 C183.81253246 61.31721909 178.80280305 55.92952916 173.14074826 50.47143888 C172.0463342 49.34802092 172.0463342 49.34802092 170.92981076 48.20190763 C158.90118822 36.50865561 140.8168137 30.38342256 124.2181561 30.32426786 C123.54574335 30.32059118 122.87333059 30.31691449 122.18054169 30.31312639 C119.94013713 30.30216363 117.69977906 30.29825833 115.45935178 30.29443693 C113.84735588 30.28816647 112.23536142 30.28151916 110.6233685 30.27452421 C105.33880729 30.25354327 100.054246 30.24312448 94.76965451 30.23315763 C92.94421936 30.22910726 91.11878436 30.22499025 89.2933495 30.22080755 C80.71138899 30.20176563 72.12943699 30.18753489 63.54745942 30.17919558 C53.67280969 30.16943947 43.79838509 30.14315832 33.92381459 30.10269469 C26.27171599 30.0724252 18.6196815 30.05771632 10.96752423 30.05441457 C6.4068579 30.05207563 1.84643231 30.04326758 -2.71416926 30.0179534 C-7.01281463 29.99447844 -11.31106405 29.99051642 -15.60975718 30.00071478 C-17.17571853 30.00120564 -18.74170067 29.99502031 -20.30760074 29.98115873 C-33.59472934 29.87025056 -46.07370539 31.83664566 -58.04675174 38.03393888 Z "
        fill="#000000" transform="translate(206.8592517375946,78.52856111526489)" />
    <path
        d="M0 0 C1.13179687 0.53753906 2.26359375 1.07507813 3.4296875 1.62890625 C11.11777217 5.52721742 17.60907483 10.23448647 24 16 C24.78117188 16.69867188 25.56234375 17.39734375 26.3671875 18.1171875 C39.71844356 30.72927367 48.41511296 47.35164084 53 65 C53.22558594 65.78117187 53.45117188 66.56234375 53.68359375 67.3671875 C58.62259028 87.05504954 54.56719963 109.9786436 46 128 C45.46246094 129.13179687 44.92492187 130.26359375 44.37109375 131.4296875 C40.47278258 139.11777217 35.76551353 145.60907483 30 152 C29.30132812 152.78117188 28.60265625 153.56234375 27.8828125 154.3671875 C9.9513564 173.34957143 -15.26657205 182.48501688 -40.96118164 183.33666992 C-66.40270399 183.74066699 -89.31629949 173.48836235 -107.73046875 156.234375 C-127.46176269 136.80872933 -136.93934091 112.06042331 -137.375 84.625 C-137.30172544 57.59754423 -124.65391365 34.68527695 -105.92578125 15.921875 C-77.52294406 -10.74844162 -34.96423823 -16.62170162 0 0 Z "
        fill="#FCFEFE" transform="translate(297,169)" />
    <path
        d="M0 0 C14.05747718 10.6028576 23.10161712 25.86640948 26.21484375 43.15625 C28.09548583 62.43608875 23.07967742 80.12008152 11.40234375 95.59375 C0.24866612 108.47667997 -15.69574255 117.91772083 -32.92675781 119.33203125 C-52.23125337 120.46236558 -69.38469146 115.42179581 -84.1875 102.62109375 C-97.79490624 89.70940452 -105.46555909 73.34617445 -106.18530273 54.54663086 C-106.48277936 36.00780997 -99.54726069 19.56249852 -86.78515625 6.15625 C-61.85115983 -17.57971656 -28.13047831 -18.62213992 0 0 Z "
        fill="#000000" transform="translate(295.78515625,202.84375)" />
    <path
        d="M0 0 C3.62011046 2.33296007 5.89022378 4.96794755 7.8125 8.8125 C8.21476867 14.04199274 7.7412695 17.41934575 4.8125 21.8125 C1.13909249 25.30223714 -1.81978226 26.11343333 -6.75 26.3125 C-10.41272197 26.17315732 -12.00876472 25.91463445 -15.25 24.0625 C-19.25699565 19.40921472 -19.67889093 15.54244686 -19.57421875 9.51171875 C-18.96027065 5.22648505 -17.40195287 3.66167413 -14.1875 0.8125 C-9.83815452 -2.37702002 -4.85924172 -1.81030574 0 0 Z "
        fill="#000000" transform="translate(358.1875,147.1875)" />
</svg>