<?xml version="1.0" encoding="UTF-8"?>
<svg version="1.1" xmlns="http://www.w3.org/2000/svg" width="512" height="512">
    <path
        d="M0 0 C1.01790619 0.00215515 2.03581238 0.0043103 3.08456421 0.00653076 C17.69363523 0.05620146 32.02575853 0.30709809 46.375 3.3125 C47.34985352 3.51117676 48.32470703 3.70985352 49.32910156 3.91455078 C97.7109774 14.03517194 141.69928269 35.9516877 177.375 70.3125 C178.3640332 71.26068604 178.3640332 71.26068604 179.37304688 72.22802734 C188.86130305 81.37247479 197.6012044 90.66984009 205.375 101.3125 C206.23306152 102.46355017 207.09113451 103.61459177 207.94921875 104.765625 C213.98677396 112.95525981 219.36957302 121.45788276 224.375 130.3125 C224.7771875 131.01971191 225.179375 131.72692383 225.59375 132.45556641 C238.6191741 155.59095836 247.36801461 180.76212409 252.6875 206.75 C252.83485596 207.46889404 252.98221191 208.18778809 253.1340332 208.9284668 C256.10789088 224.57475609 256.74800362 240.04818046 256.6875 255.9375 C256.68534485 256.95540619 256.6831897 257.97331238 256.68096924 259.02206421 C256.63129854 273.63113523 256.38040191 287.96325853 253.375 302.3125 C253.07698486 303.77478027 253.07698486 303.77478027 252.77294922 305.26660156 C242.65232806 353.6484774 220.7358123 397.63678269 186.375 433.3125 C185.74287598 433.97185547 185.11075195 434.63121094 184.45947266 435.31054688 C175.31502521 444.79880305 166.01765991 453.5387044 155.375 461.3125 C154.22394983 462.17056152 153.07290823 463.02863451 151.921875 463.88671875 C143.73224019 469.92427396 135.22961724 475.30707302 126.375 480.3125 C125.66778809 480.7146875 124.96057617 481.116875 124.23193359 481.53125 C101.09654164 494.5566741 75.92537591 503.30551461 49.9375 508.625 C49.21860596 508.77235596 48.49971191 508.91971191 47.7590332 509.0715332 C32.23237908 512.02265207 16.83186592 512.71957988 1.0625 512.6875 C-0.45177582 512.68668427 -0.45177582 512.68668427 -1.99664307 512.68585205 C-18.50623539 512.64508601 -34.42282001 511.73779309 -50.625 508.3125 C-51.66688477 508.09287598 -52.70876953 507.87325195 -53.78222656 507.64697266 C-100.71465356 497.40993664 -143.09026912 474.61110982 -177.625 441.3125 C-178.58889648 440.38945068 -178.58889648 440.38945068 -179.57226562 439.44775391 C-188.74836539 430.62136647 -197.09816554 421.58141996 -204.625 411.3125 C-205.26211914 410.45857666 -205.26211914 410.45857666 -205.91210938 409.58740234 C-212.42768015 400.84658179 -218.26088547 391.80163672 -223.625 382.3125 C-224.0271875 381.60528809 -224.429375 380.89807617 -224.84375 380.16943359 C-237.8691741 357.03404164 -246.61801461 331.86287591 -251.9375 305.875 C-252.08485596 305.15610596 -252.23221191 304.43721191 -252.3840332 303.6965332 C-255.35789088 288.05024391 -255.99800362 272.57681954 -255.9375 256.6875 C-255.93534485 255.66959381 -255.9331897 254.65168762 -255.93096924 253.60293579 C-255.88129854 238.99386477 -255.63040191 224.66174147 -252.625 210.3125 C-252.42632324 209.33764648 -252.22764648 208.36279297 -252.02294922 207.35839844 C-241.90232806 158.9765226 -219.9858123 114.98821731 -185.625 79.3125 C-184.99287598 78.65314453 -184.36075195 77.99378906 -183.70947266 77.31445312 C-174.56502521 67.82619695 -165.26765991 59.0862956 -154.625 51.3125 C-153.47394983 50.45443848 -152.32290823 49.59636549 -151.171875 48.73828125 C-142.98224019 42.70072604 -134.47961724 37.31792698 -125.625 32.3125 C-124.91778809 31.9103125 -124.21057617 31.508125 -123.48193359 31.09375 C-100.34654164 18.0683259 -75.17537591 9.31948539 -49.1875 4 C-48.46860596 3.85264404 -47.74971191 3.70528809 -47.0090332 3.5534668 C-31.36274391 0.57960912 -15.88931954 -0.06050362 0 0 Z "
        fill="#13C7CD" transform="translate(255.625,-0.3125)" />
    <path
        d="M0 0 C61.71104859 0.06727571 122.77782829 27.77812404 166.875 70.25 C167.8640332 71.19818604 167.8640332 71.19818604 168.87304688 72.16552734 C178.36130305 81.30997479 187.1012044 90.60734009 194.875 101.25 C195.73306152 102.40105017 196.59113451 103.55209177 197.44921875 104.703125 C203.48677396 112.89275981 208.86957302 121.39538276 213.875 130.25 C214.47828125 131.31081787 214.47828125 131.31081787 215.09375 132.39306641 C228.1191741 155.52845836 236.86801461 180.69962409 242.1875 206.6875 C242.33485596 207.40639404 242.48221191 208.12528809 242.6340332 208.8659668 C245.60789088 224.51225609 246.24800362 239.98568046 246.1875 255.875 C246.18534485 256.89290619 246.1831897 257.91081238 246.18096924 258.95956421 C246.13129854 273.56863523 245.88040191 287.90075853 242.875 302.25 C242.57698486 303.71228027 242.57698486 303.71228027 242.27294922 305.20410156 C232.15232806 353.5859774 210.2358123 397.57428269 175.875 433.25 C175.24287598 433.90935547 174.61075195 434.56871094 173.95947266 435.24804688 C164.81502521 444.73630305 155.51765991 453.4762044 144.875 461.25 C143.72394983 462.10806152 142.57290823 462.96613451 141.421875 463.82421875 C133.23224019 469.86177396 124.72961724 475.24457302 115.875 480.25 C115.16778809 480.6521875 114.46057617 481.054375 113.73193359 481.46875 C87.79407723 496.0719856 59.21169386 505.42244278 29.875 510.25 C29.1742334 510.36714355 28.4734668 510.48428711 27.75146484 510.60498047 C18.59293897 512.07147771 9.58831366 512.35119104 0.328125 512.296875 C-0.77708496 512.29349121 -1.88229492 512.29010742 -3.02099609 512.28662109 C-5.72236336 512.2778599 -8.42366488 512.26557495 -11.125 512.25 C-11.17128493 499.52421452 -11.20684964 486.79844897 -11.22862434 474.07259655 C-11.23907366 468.16384603 -11.25325381 462.25515298 -11.27587891 456.34643555 C-11.29756633 450.6471074 -11.30955998 444.94783462 -11.31475449 439.2484684 C-11.31845762 437.07110026 -11.32568864 434.89373525 -11.33646011 432.71639061 C-11.35092047 429.67308309 -11.35298023 426.63000612 -11.35205078 423.58666992 C-11.35924133 422.68108337 -11.36643188 421.77549683 -11.37384033 420.84246826 C-11.371091 420.01375717 -11.36834167 419.18504608 -11.36550903 418.33122253 C-11.36735262 417.61130221 -11.36919621 416.89138189 -11.37109566 416.14964581 C-11.125 414.25 -11.125 414.25 -9.125 411.25 C-6.85824294 410.28230294 -4.63354319 409.43619637 -2.3125 408.625 C20.76609791 399.94864737 36.69191322 380.83598148 47.34375 359.27734375 C55.42337942 340.58088421 55.47732883 319.49948574 55.484375 299.50390625 C55.49940124 297.02570032 55.51613745 294.54750424 55.53448486 292.06932068 C55.57767209 285.63013175 55.5980481 279.19107773 55.61322021 272.75177002 C55.63296902 266.14758482 55.67491737 259.5435417 55.71484375 252.93945312 C55.78961742 240.04301748 55.84098367 227.14660442 55.875 214.25 C59.00776205 215.78487459 61.99579926 217.49625952 64.99951172 219.27075195 C76.98327992 226.26006465 89.41132992 231.4580054 102.9375 234.625 C103.90695557 234.85860229 103.90695557 234.85860229 104.89599609 235.09692383 C112.89296377 236.79034232 120.54297608 236.75988095 128.875 237.25 C128.545 220.09 128.215 202.93 127.875 185.25 C123.915 184.26 119.955 183.27 115.875 182.25 C114.39 181.26 114.39 181.26 112.875 180.25 C112.58203125 178.0859375 112.58203125 178.0859375 112.6875 175.625 C112.72810547 174.39910156 112.72810547 174.39910156 112.76953125 173.1484375 C112.80433594 172.52195313 112.83914063 171.89546875 112.875 171.25 C111.71613281 171.29382813 110.55726563 171.33765625 109.36328125 171.3828125 C105.02812259 171.37709204 101.16395848 170.47865841 97.0625 169.125 C96.02210571 168.78722534 96.02210571 168.78722534 94.96069336 168.44262695 C82.32467115 164.17601313 71.94403102 157.32651152 64.359375 146.20703125 C62.83106313 144.09104647 62.83106313 144.09104647 60.4765625 141.9140625 C57.72574881 139.0971632 55.58576675 136.12757955 53.5 132.8125 C53.11714844 132.20414307 52.73429687 131.59578613 52.33984375 130.96899414 C51.16595795 129.07337332 50.01489085 127.16623828 48.875 125.25 C48.52018555 124.65413086 48.16537109 124.05826172 47.79980469 123.44433594 C46.79163107 121.71096798 45.83272617 119.9492432 44.875 118.1875 C44.318125 117.16527344 43.76125 116.14304687 43.1875 115.08984375 C41.875 111.25 41.875 111.25 40.875 98.25 C23.715 98.25 6.555 98.25 -11.125 98.25 C-11.16510881 74.08221411 -11.16510881 74.08221411 -11.17382812 63.81835938 C-11.17981705 56.80166879 -11.18691866 49.78499119 -11.20043945 42.76831055 C-11.2112667 37.11438288 -11.21727649 31.46046913 -11.21987724 25.80653191 C-11.22173179 23.6442639 -11.22535295 21.48199669 -11.23073006 19.31973457 C-11.23793833 16.30241343 -11.23899103 13.28515057 -11.23852539 10.26782227 C-11.24212067 9.3643959 -11.24571594 8.46096954 -11.24942017 7.53016663 C-11.23402415 -1.62623364 -8.16020389 0.02235672 0 0 Z "
        fill="#13C7CD" transform="translate(266.125,-0.25)" />
    <path
        d="M0 0 C17.49 0 34.98 0 53 0 C53.99 5.94 53.99 5.94 55 12 C56.12083534 14.86260294 57.18069495 17.33718234 58.625 20 C58.97763916 20.67369629 59.33027832 21.34739258 59.69360352 22.04150391 C64.75671936 31.52908363 70.62147114 39.96316713 77.9765625 47.8203125 C79.61059213 49.58052202 81.09744913 51.35231665 82.5625 53.25 C93.37900003 65.4532308 109.40477251 69.82247489 125 72 C125.84110031 78.54544844 126.13481564 84.90907443 126.09765625 91.50390625 C126.09553383 92.94974342 126.09553383 92.94974342 126.09336853 94.42478943 C126.08781942 97.47072598 126.07527669 100.51658607 126.0625 103.5625 C126.05747841 105.64127497 126.05291666 107.72005111 126.04882812 109.79882812 C126.03786671 114.86591439 126.0206378 119.93294428 126 125 C117.52379851 125.16516206 109.37975673 125.19888308 101.0625 123.375 C100.22041992 123.19606201 99.37833984 123.01712402 98.51074219 122.83276367 C82.82037573 119.3191767 67.8194027 112.81365446 55 103 C54.99641747 103.86966117 54.99641747 103.86966117 54.99276257 104.75689125 C54.93339075 118.92372413 54.85770108 133.09039332 54.76428509 147.25704384 C54.71949356 154.10819577 54.68004158 160.95929765 54.65356445 167.81054688 C54.62796476 174.43074063 54.58694964 181.05072696 54.53681374 187.67078781 C54.52021601 190.18791267 54.50865782 192.70507631 54.50238609 195.22224808 C54.43280053 220.59884121 54.43280053 220.59884121 51 232 C50.77235458 232.76821579 50.54470917 233.53643158 50.31016541 234.32792664 C42.33194748 259.13969527 26.53216361 280.96144393 3.109375 293.08984375 C-11.40734592 300.21460353 -25.71299365 303.38890801 -41.875 303.25 C-43.02395752 303.24250732 -44.17291504 303.23501465 -45.35668945 303.22729492 C-73.82114403 302.86529582 -96.58954057 291.93597366 -116.43041992 271.70336914 C-134.52006671 252.07178326 -141.17768921 225.58866939 -140.17480469 199.51367188 C-138.30199985 172.58294763 -123.66391889 148.61217903 -103.71875 131.16015625 C-86.95235884 117.83858396 -66.82744166 110.77392208 -45.5 110.875 C-44.27603516 110.86919922 -44.27603516 110.86919922 -43.02734375 110.86328125 C-42.22425781 110.86457031 -41.42117187 110.86585938 -40.59375 110.8671875 C-39.87896484 110.86831543 -39.16417969 110.86944336 -38.42773438 110.87060547 C-35.25037979 111.03995361 -32.14347592 111.51892397 -29 112 C-28.97500477 117.4585742 -28.95700237 122.91711401 -28.94506836 128.37573242 C-28.94008542 130.22697532 -28.93329665 132.07821437 -28.92456055 133.92944336 C-28.8767125 144.34061559 -28.93693739 154.6318437 -30 165 C-30.56807373 164.97381592 -31.13614746 164.94763184 -31.72143555 164.9206543 C-47.40509855 164.29444921 -59.38103496 165.02390044 -71.78125 175.7734375 C-78.50010109 182.51594652 -82.30585134 189.93259644 -85 199 C-85.19207031 199.6290625 -85.38414062 200.258125 -85.58203125 200.90625 C-87.89480849 212.49175095 -85.27734316 221.90541848 -79.25 231.6875 C-73.14282955 240.34441411 -64.99861885 245.66712705 -55 249 C-52.09269402 249.12365396 -49.21980542 249.18514971 -46.3125 249.1875 C-45.53455078 249.19974609 -44.75660156 249.21199219 -43.95507812 249.22460938 C-32.68343559 249.25281198 -22.02593122 245.50342361 -13.65625 237.78515625 C-4.49431744 227.91014875 0.16813321 216.83778818 0.12025452 203.47064209 C0.12110894 202.60151129 0.12196337 201.73238049 0.12284368 200.83691239 C0.12449307 197.91957439 0.11898592 195.00229366 0.11352539 192.08496094 C0.11324338 189.99572755 0.11340153 187.90649407 0.1139679 185.81726074 C0.11425531 180.13998407 0.10836751 174.46272843 0.10139394 168.78545666 C0.0951512 162.85438836 0.09455587 156.92331961 0.09336853 150.99224854 C0.09025794 139.75843226 0.0820482 128.52462568 0.07201904 117.29081368 C0.06084948 104.50257375 0.05534532 91.71433336 0.05032361 78.92608976 C0.03986537 52.61738655 0.02152325 26.30869665 0 0 Z "
        fill="#000000" transform="translate(254,99)" />
    <path
        d="M0 0 C1.22396484 -0.00580078 1.22396484 -0.00580078 2.47265625 -0.01171875 C3.27574219 -0.01042969 4.07882813 -0.00914062 4.90625 -0.0078125 C5.62103516 -0.00668457 6.33582031 -0.00555664 7.07226562 -0.00439453 C10.24962021 0.16495361 13.35652408 0.64392397 16.5 1.125 C16.52499523 6.5835742 16.54299763 12.04211401 16.55493164 17.50073242 C16.55991458 19.35197532 16.56670335 21.20321437 16.57543945 23.05444336 C16.6232875 33.46561559 16.56306261 43.7568437 15.5 54.125 C14.93192627 54.09881592 14.36385254 54.07263184 13.77856445 54.0456543 C-1.90509855 53.41944921 -13.88103496 54.14890044 -26.28125 64.8984375 C-33.00010109 71.64094652 -36.80585134 79.05759644 -39.5 88.125 C-39.69207031 88.7540625 -39.88414062 89.383125 -40.08203125 90.03125 C-42.39480849 101.61675095 -39.77734316 111.03041848 -33.75 120.8125 C-29.88871097 126.3314131 -25.10932451 130.47420286 -19.4375 134.0625 C-16.75858335 135.94344148 -15.27833954 137.49885404 -13.25 140 C-8.08341203 146.14033515 -1.22885997 150.06334308 6.5 152.125 C9.29746897 152.3378509 11.95708167 152.45902719 14.75 152.4375 C15.87825195 152.43012817 15.87825195 152.43012817 17.02929688 152.42260742 C26.81775005 152.21710049 34.2051385 149.17270793 42.5 144.125 C44.15 143.135 45.8 142.145 47.5 141.125 C47.5 154.655 47.5 168.185 47.5 182.125 C32.81282544 189.46858728 19.92936022 192.5151315 3.625 192.375 C2.47604248 192.36750732 1.32708496 192.36001465 0.14331055 192.35229492 C-28.32114403 191.99029582 -51.08954057 181.06097366 -70.93041992 160.82836914 C-89.02006671 141.19678326 -95.67768921 114.71366939 -94.67480469 88.63867188 C-92.80199985 61.70794763 -78.16391889 37.73717903 -58.21875 20.28515625 C-41.45235884 6.96358396 -21.32744166 -0.10107792 0 0 Z "
        fill="#000000" transform="translate(208.5,209.875)" />
    <path
        d="M0 0 C14 3 14 3 15 4 C15.09340434 5.62674778 15.11745171 7.25754051 15.11352539 8.88696289 C15.11344986 9.92796646 15.11337433 10.96897003 15.11329651 12.04151917 C15.10813522 13.1737944 15.10297394 14.30606964 15.09765625 15.47265625 C15.09553383 17.20182533 15.09553383 17.20182533 15.09336853 18.96592712 C15.08775005 22.66481064 15.07519442 26.36363464 15.0625 30.0625 C15.05748738 32.56315017 15.05292406 35.06380129 15.04882812 37.56445312 C15.03777462 43.70965588 15.02101852 49.85482369 15 56 C-3.43727029 56.3739458 -3.43727029 56.3739458 -12.25 54.0625 C-13.11351074 53.84577637 -13.97702148 53.62905273 -14.86669922 53.40576172 C-29.10659716 49.6021119 -43.00973911 43.62247845 -55 35 C-55.99 34.34 -56.98 33.68 -58 33 C-57.99631283 33.55601678 -57.99262566 34.11203356 -57.98882675 34.68489933 C-57.89978166 48.32896688 -57.83421467 61.97298228 -57.79275131 75.61728001 C-57.77201549 82.21607475 -57.74395833 88.81465736 -57.69824219 95.41333008 C-57.65427926 101.80005366 -57.63075809 108.18657524 -57.62049103 114.57343864 C-57.61318908 116.99107982 -57.5989352 119.40871192 -57.57707977 121.82626534 C-57.30029141 153.75912636 -62.1771675 181.39694626 -84 206 C-84.62519531 206.70898438 -85.25039063 207.41796875 -85.89453125 208.1484375 C-102.28086426 225.60419435 -125.30640398 234.36407283 -148.8515625 235.2578125 C-173.41711879 235.86564724 -194.51901101 230.40820913 -214 215 C-215.35895643 213.69279191 -216.70266228 212.3683824 -218 211 C-217.505 210.01 -217.505 210.01 -217 209 C-215.989375 209.556875 -214.97875 210.11375 -213.9375 210.6875 C-191.92376435 221.61658077 -162.57247879 224.2512049 -139 217 C-113.8498192 207.9426111 -94.25148141 191.7814834 -82.6875 167.625 C-76.22599141 153.56557679 -72.87868693 140.02207408 -72.79467773 124.55688477 C-72.78477814 123.42444839 -72.77487854 122.29201202 -72.76467896 121.1252594 C-72.73319413 117.39732932 -72.70835808 113.66938652 -72.68359375 109.94140625 C-72.66301298 107.35065894 -72.64201622 104.7599149 -72.62062073 102.16917419 C-72.5711426 96.05663289 -72.52584745 89.94407382 -72.48259836 83.83148569 C-72.43310039 76.86891078 -72.37822911 69.90638142 -72.32291877 62.94385064 C-72.20932355 48.62927658 -72.10243621 34.31465804 -72 20 C-71.06841064 20.53471924 -70.13682129 21.06943848 -69.17700195 21.62036133 C-67.9266193 22.33679362 -66.67621102 23.0531812 -65.42578125 23.76953125 C-64.50980164 24.29552917 -64.50980164 24.29552917 -63.57531738 24.83215332 C-42.66497012 36.80362071 -24.23806595 41.38412894 0 43 C0 28.81 0 14.62 0 0 Z "
        fill="#000000" transform="translate(380,181)" />
    <path
        d="M0 0 C17.49 0 34.98 0 53 0 C53.99 6.435 53.99 6.435 55 13 C42.13 13 29.26 13 16 13 C16.02618408 19.37908691 16.05236816 25.75817383 16.0793457 32.33056641 C16.16222814 53.41696327 16.21769233 74.50336657 16.25906086 95.5898838 C16.28480858 108.37348375 16.31989362 121.15692903 16.37719727 133.94042969 C16.42713713 145.08653476 16.45931594 156.23252778 16.47044247 167.37874162 C16.47694325 173.27698479 16.4921506 179.17490749 16.52865028 185.07304764 C16.56277685 190.63314523 16.57301936 196.19279261 16.56553841 201.752985 C16.56690552 203.78540182 16.57673791 205.81783486 16.59602737 207.8501606 C16.74651304 224.53413268 14.64086233 238.05401386 3 251 C-7.13013789 260.79556453 -18.69983249 264.3014918 -32.48046875 264.31469727 C-45.03873569 264.08756251 -53.44173588 257.75015345 -62 249 C-61.505 248.01 -61.505 248.01 -61 247 C-60.19304687 247.32484375 -59.38609375 247.6496875 -58.5546875 247.984375 C-54.29017302 249.20280771 -50.53063126 249.29412986 -46.125 249.25 C-45.36058594 249.25773438 -44.59617188 249.26546875 -43.80859375 249.2734375 C-32.60884146 249.23540778 -21.96622436 245.44836374 -13.65625 237.78515625 C-4.49431744 227.91014875 0.16813321 216.83778818 0.12025452 203.47064209 C0.12153615 202.16694589 0.12153615 202.16694589 0.12284368 200.83691239 C0.12449307 197.91957439 0.11898592 195.00229366 0.11352539 192.08496094 C0.11324338 189.99572755 0.11340153 187.90649407 0.1139679 185.81726074 C0.11425531 180.13998407 0.10836751 174.46272843 0.10139394 168.78545666 C0.0951512 162.85438836 0.09455587 156.92331961 0.09336853 150.99224854 C0.09025794 139.75843226 0.0820482 128.52462568 0.07201904 117.29081368 C0.06084948 104.50257375 0.05534532 91.71433336 0.05032361 78.92608976 C0.03986537 52.61738655 0.02152325 26.30869665 0 0 Z "
        fill="#1FCCCF" transform="translate(254,99)" />
    <path
        d="M0 0 C1.22396484 -0.00580078 1.22396484 -0.00580078 2.47265625 -0.01171875 C7.25356418 -0.00404474 11.78557351 0.32658906 16.5 1.125 C16.5 5.415 16.5 9.705 16.5 14.125 C12.53082961 14.91883408 9.2439242 15.24250014 5.25 15.375 C-13.48869393 16.70370822 -31.36052418 24.85470862 -45.5 37.125 C-46.07363281 37.55683594 -46.64726562 37.98867187 -47.23828125 38.43359375 C-62.68010667 50.39657115 -72.72926195 71.22771117 -75.8371582 90.18115234 C-79.21767354 116.84326164 -76.73380293 145.18052569 -59.98046875 167.109375 C-58.55817194 169.04580021 -57.50510815 170.94808283 -56.5 173.125 C-77.09380577 158.66551936 -88.61982027 137.46867711 -93.5 113.125 C-97.80830331 87.4353172 -91.57333838 61.63493592 -76.81640625 40.2734375 C-61.12842506 18.95048162 -39.37772745 5.1073175 -13.24609375 0.55859375 C-8.80630328 0.04470768 -4.46442578 -0.02115842 0 0 Z "
        fill="#25F2F6" transform="translate(208.5,209.875)" />
    <path
        d="M0 0 C4.62 0 9.24 0 14 0 C14 17.82 14 35.64 14 54 C6.74 54 -0.52 54 -8 54 C-20.06053834 57.6181615 -28.92368544 61.36036714 -35.40234375 72.38671875 C-41.19990274 83.36006954 -43.35243504 95.72416737 -39.9140625 107.8203125 C-38.70763195 110.93750589 -37.40345346 113.96762024 -36 117 C-35.67 117.99 -35.34 118.98 -35 120 C-44.66674545 116.60219843 -50.52807633 108.88651498 -55 100 C-55.51046875 99.04867187 -55.51046875 99.04867187 -56.03125 98.078125 C-60.34574663 88.73004896 -58.5844753 77.48317725 -55.3203125 68.1015625 C-49.80753768 55.15143468 -41.00573483 46.33462573 -28 41 C-23.25198907 39.09681685 -18.99823809 38.72272033 -13.9375 38.8125 C-13.24333984 38.81314453 -12.54917969 38.81378906 -11.83398438 38.81445312 C-8.08938541 38.84645824 -4.65094686 39.21059544 -1 40 C-1.00580078 39.22760986 -1.01160156 38.45521973 -1.01757812 37.65942383 C-1.05248701 29.32305635 -0.83698168 21.01641203 -0.5 12.6875 C-0.45230469 11.45837891 -0.40460938 10.22925781 -0.35546875 8.96289062 C-0.23921513 5.97517258 -0.11993123 2.98757268 0 0 Z "
        fill="#FA2954" transform="translate(225,224)" />
    <path
        d="M0 0 C0.56396484 0.23187012 1.12792969 0.46374023 1.70898438 0.70263672 C4.30372542 1.76571551 6.90180392 2.82039513 9.5 3.875 C10.386875 4.23980469 11.27375 4.60460937 12.1875 4.98046875 C35.37960999 14.35963088 64.33119043 14.19582995 87.5 4.8125 C89.645 3.884375 91.79 2.95625 94 2 C94 8.6 94 15.2 94 22 C72.61129562 30.55548175 45.60476287 27.57483797 24.75 18.8125 C15.77520383 14.81071765 6.55456519 9.41290111 0 2 C0 1.34 0 0.68 0 0 Z "
        fill="#F92A55" transform="translate(162,390)" />
    <path
        d="M0 0 C0.22329729 4.87436991 0.38613882 9.74573961 0.49438477 14.62402344 C0.53951672 16.28112654 0.60084462 17.93787369 0.67895508 19.59375 C1.31096121 33.340916 1.31096121 33.340916 -1.87646484 37.37475586 C-4.21666472 38.95803147 -6.36168706 40.00505997 -9 41 C-10.58623533 41.76484375 -12.1700188 42.5348189 -13.75 43.3125 C-22.89833397 47.32760213 -36.04378755 47.92215152 -45.5 44.4375 C-52.25216466 41.19968725 -57.8021036 36.31444116 -63 31 C-62.67 30.34 -62.34 29.68 -62 29 C-61.19304687 29.32484375 -60.38609375 29.6496875 -59.5546875 29.984375 C-55.29017302 31.20280771 -51.53063126 31.29412986 -47.125 31.25 C-46.36058594 31.25773437 -45.59617188 31.26546875 -44.80859375 31.2734375 C-33.60030077 31.23537878 -22.99236228 27.439655 -14.66015625 19.796875 C-9.47021107 14.17952257 -5.8466489 8.04171044 -3 1 C-1 0 -1 0 0 0 Z "
        fill="#25F4F8" transform="translate(255,317)" />
    <path
        d="M0 0 C1.56234375 0.70576172 1.56234375 0.70576172 3.15625 1.42578125 C13.01224177 5.75000647 22.34836109 8.49472129 33 10 C33 12.97 33 15.94 33 19 C23.85209395 16.54966802 16.0967988 11.77042787 8 7 C7.07316406 6.46246094 6.14632813 5.92492187 5.19140625 5.37109375 C3.41991347 4.31325046 1.70024814 3.1689206 0 2 C0 1.34 0 0.68 0 0 Z "
        fill="#21C9CC" transform="translate(346,161)" />
    <path
        d="M0 0 C2.3203125 0.04296875 2.3203125 0.04296875 5 1 C6.22274056 3.49770872 7.06921762 5.6820955 7.875 8.3125 C10.14289232 15.07894857 12.91140167 20.71755589 16.77734375 26.7421875 C17.18082031 27.48726562 17.58429688 28.23234375 18 29 C17.67 29.66 17.34 30.32 17 31 C0 8.49295775 0 8.49295775 0 0 Z "
        fill="#C72346" transform="translate(310,112)" />
    <path
        d="M0 0 C2.06681445 2.61071299 3.93109607 5.33837839 5.75 8.125 C6.19859375 8.80820313 6.6471875 9.49140625 7.109375 10.1953125 C7.40328125 10.79085937 7.6971875 11.38640625 8 12 C7.67 12.66 7.34 13.32 7 14 C5.63343543 12.23871656 4.28205915 10.46563912 2.9375 8.6875 C1.80634766 7.20830078 1.80634766 7.20830078 0.65234375 5.69921875 C0.10707031 4.80847656 -0.43820312 3.91773438 -1 3 C-0.67 2.01 -0.34 1.02 0 0 Z "
        fill="#C12A4A" transform="translate(320,129)" />
    <path
        d="M0 0 C5.94 2.475 5.94 2.475 12 5 C11.67 5.66 11.34 6.32 11 7 C6.80639551 6.32902328 3.59665648 4.1441606 0 2 C0 1.34 0 0.68 0 0 Z "
        fill="#36C2C4" transform="translate(346,161)" />
</svg>